<?xml version="1.0" encoding="utf-8"?>
<!-- Generator: Adobe Illustrator 24.3.0, SVG Export Plug-In . SVG Version: 6.00 Build 0)  -->
<svg version="1.1" id="图层_1" xmlns="http://www.w3.org/2000/svg" xmlns:xlink="http://www.w3.org/1999/xlink" x="0px" y="0px"
	 viewBox="0 0 647.5 176.9" style="enable-background:new 0 0 647.5 176.9;" xml:space="preserve">
<style type="text/css">
	.st0{fill:#FFFFFF;}
	.st1{fill:none;}
</style>
<g>
	<path class="st0" d="M-18.6,192.1c0-161,0-322,0-483 M666.9-290.9c0,161,0,322,0,483 M323.8-262.7 M636.1,74.3
		c-0.5,0.1-1.1,0.3-1.6,0.4c-0.3,3.1-0.6,6.3-0.8,9.4c-0.3,6.7-2.9,10.3-8.9,10.8c-4.3,0.4-8.8,0.1-13.1-0.6
		c-4.4-0.7-6.8-4.5-6.4-8.7c0.5-4.8,0.9-9.6,1-14.4c0.1-3.5,0.9-6.5,3.6-9.1c3.9-3.9,3.8-4.6,0.3-8.5c1.7-4.6,5-7.2,10.3-7.5
		c1.9-0.1,3.8-1.2,5.6-1.9c4.5-1.7,5.2-5,1.2-7.7c-1.9-1.3-4.6-2-7.1-2.3c-2.9-0.4-5.9-0.1-8.4-0.1c-1.4-4.4-2.1-8.6-4.1-12.1
		c-1.6-2.9-8.9-3.4-11.1-2.1c0.8,4.3,1.8,8.2,2.3,12.2c0.2,2,1.5,5.2-2.3,5.3c-1.5,0-2.9-2.4-4.4-3.7c-0.2-0.2-0.5-0.2-1-0.5
		c-3.3,2.3-6.7,4.7-11.3,7.9c0.9-3.2,1.3-5.2,2-7.2c0.9-2.7,2.6-5.2,2.9-7.9c0.2-1.5-1.3-3.6-2.6-4.8c-1.1-0.9-3.8-1.7-4.8-1
		c-6.7,4.1-13.1,8.7-19.7,13.1c2.9,5.1,7.6,6,13.5,2.8c1.7,6.9,3.3,13.1,5.1,20.3c-4.7-1.6-7.9-2.6-7.6-7.1c0.1-1.8,0.1-3.9-0.6-5.5
		c-0.7-1.6-2.2-2.9-3.4-4.4c-0.9,1.3-2.1,2.6-2.5,4c-0.8,2.7-1.1,5.4-1.7,8.6c0.4,1,1.6,2.6,1.6,4.3c0.2,7.1,0,14.2,0,21.3
		c0,10.1-0.1,20.3,0.1,30.4c0,1.3,1.7,2.5,2.6,3.7c1.3-1.2,2.8-2.2,3.8-3.6c0.5-0.7,0.1-2.1,0.1-3.2c0-10.7-0.1-21.5,0-32.2
		c0-3.4,0.5-6.7,0.9-10.6c3.7,1.5,6.7,2.7,9.7,3.9c3.1,1.3,5.9,1.8,6.5-1.2c4.7,0.4,8.7,0.8,13.6,1.3c-9.6,9.8-19,19.4-28.4,29
		c3.7,3.3,6,3.3,8.6,0.4c5.6-6.3,11-12.6,16.5-18.9c1.3-1.4,2.7-2.7,4.3-4.3c0,5.6-0.2,10.5,0.1,15.4c0.3,5.2,2.4,10,7.7,12.1
		c9.7,3.9,19.6,3.5,28.7-1.7c2.1-1.2,4.6-4.4,4.3-6.3C640.2,86.1,637.9,80.3,636.1,74.3z M346.7,40.1c0,0.6-0.1,1.1-0.1,1.7
		c2.2,0.5,4.5,1.7,6.6,1.4c3.5-0.4,6.8-2.1,10.2-2.7c2-0.4,4.6-0.3,6.4,0.7c7.2,3.8,7.2,3.9,9.3-3.7c0.1-0.2,0.4-0.3,0.8-0.7
		c1.6,0.3,3.3,0.6,5.7,1c-3.7,5.1-7.1,9.7-10.3,14.4c-1.3,1.9-2.6,2.4-4.9,1.3c-4.1-2-8.4-1.9-12.8-0.4c-3.4,1.1-3.6,3-1.3,5
		c2.8,2.5,5.7,4.9,8.9,6.9c5.3,3.2,9.5,1,10.6-4.9c0.3-1.4,2.1-2.7,3.4-3.8c0.4-0.3,2.1,0.2,2.1,0.3c0,1.5,0.3,3.3-0.4,4.6
		c-4.7,9.2-9.5,18.3-14.4,27.4c-0.6,1.2-1.3,3-2.3,3.3c-3.2,0.8-3.5,3.4-3.9,5.5c-0.8,3.8-1.2,7.7-1.4,11.5c-0.1,1.3,1,2.7,1.5,4.1
		c0.5,0,1,0,1.4,0c8.8-13.4,11.2-29.5,19.6-43.7c0,8.4,0.4,16.2-0.1,23.9c-0.5,7.6,3.2,13.5,11.3,14.4c8.7,0.9,17.5,1.2,26.3,0.9
		c7.2-0.3,9.8-3.7,9.6-10.6c-0.1-3.5-0.2-7-0.7-10.4c-0.6-4.1-1.6-8.1-2.5-12.1c-0.5,0.1-1,0.1-1.5,0.2c0,1.2,0.1,2.5,0,3.7
		c-0.6,5.3-0.9,10.6-1.9,15.9c-0.9,4.5-4.3,7.5-9.2,7.7c-6.3,0.2-12.7-0.2-19.1-0.5c-3.9-0.2-6.1-3-6.6-6c-0.7-4.7-0.2-9.5-0.2-14.4
		c6.8,1.6,7.4,1.9,10.4-3.6c4.1-7.4,7.2-15.3,10.8-23c1.1-2.3,0.4-4-1.8-5.5c-2-1.5-3.8-2.4-6.6-1.3c-3.9,1.6-8,2.7-12.1,3.8
		c-1.3,0.3-2.8,0.1-4.7,0.1c1.7-2.1,3.1-3.5,4-5.1c4.9-8.8,12.3-12.4,22.9-10.9c2.4,0.3,5.1-1.6,8.6-2.8c-6.3-4.9-12.6-2.3-18.5-3.2
		c0.6-1.4,1-2.4,1.3-3.4c1.1-3.3,2.4-6.6,3.1-10c0.4-2.2,0.1-4.8-3.3-5c-2.8-0.2-4.8,0-5.8,3.6c-1.3,5-3.9,9.7-6.2,14.4
		c-0.4,0.8-1.7,1.5-2.6,1.6c-2.9,0.4-5.8,0.6-9,0.9c-1.6-7.8-7.4-11.8-15.2-15.5c0.2,2.3,0.3,3.7,0.6,5c0.6,2.6,1.2,5.3,2.2,7.8
		c1.4,3.6,0.3,5.3-3.7,6.2C356.5,36.9,351.6,38.6,346.7,40.1z M76.1,50.7c4.9-6.6,9.6-12.7,14-18.9c1-1.4,2-4,1.4-4.8
		c-1.1-1.3-3.5-2-5.4-2.1c-3.1-0.1-6.2,0.5-9.3,0.7c0.9-2.1,2-3.9,2.2-5.8c0.1-1.2-1.3-2.5-2-3.7c-1,0.6-2.2,1-3,1.8
		c-5.8,5.5-11.4,11.3-17.3,16.7c-2.5,2.3-5.5,4-8.6,6.2c3.1,2.9,6.7,3,10.3,3.7c2.6,0.5,4.9,3,7,5c0.5,0.4,0.2,2.3-0.4,3.1
		C58.9,60,52,66.5,43.3,71.1c-1,0.5-2.1,0.7-3.6,1.2c1.5-4.8,2.7-8.8,4-12.9c-0.5-0.2-1-0.4-1.6-0.6c-0.8,1.3-1.7,2.6-2.5,3.9
		c-3.8,6.6-7.4,13.3-11.2,19.9c-2.9,5-3.1,4.9-6.7,0.3c-0.1-0.2-0.5-0.1-1.2-0.3c-2.9,7.8-3,15.3,1.5,22.6c0.8,1.2,2.9,3,3.7,2.7
		c1.4-0.5,2.8-2.2,3.3-3.7c2.1-6.3,4-12.6,5.8-18.9c1-3.4,1.9-6.5,6.7-6.2c1.2,0.1,2.6-0.5,3.6-1.2c3.9-2.7,5.5-0.9,6.6,2.6
		c0.4,1.4,1,2.8,1.6,4.2c1.5,3.5,2.6,7.2,4.7,10.3c1,1.6,3.8,2.5,5.9,2.9c1,0.2,3.5-1,3.6-1.8c0.7-3.7,3.2-3.1,5.7-2.8
		c2.3,0.3,4.5,1,6.7,0.9c1.6-0.1,3.7-0.7,4.6-1.8c3.1-3.8,6.1-7.8,8.6-12c0.9-1.4,1-3.8,0.4-5.2c-2.3-5.2-7.6-7.5-13.5-6.4
		c-2.9,0.6-5.9,1-8.8,1.3c-4,0.3-8,0.4-12,0.6c0.3-1.8,1-2.6,1.7-3.2c3.4-3.1,6.9-6,10.1-9.2c2.1-2.1,3.4-1.8,5.6-0.2
		c10.9,8,23.3,13.4,36.1,17.9c3.4,1.2,6.9,0.8,10.2-2.5C106.7,66.6,90.6,60.7,76.1,50.7z M480.7,50.1c-0.9,3.2-2.1,6.2-2.4,9.3
		c-0.2,1.5,0.9,4.3,1.9,4.5c1.9,0.4,4.1-0.5,6.1-1.2c0.6-0.2,0.9-1.2,1.7-2.3c1.6,1.9,3,3.5,5,5.9c-12,1.3-23.2,1.6-34,5.3
		c2.3,4.5,5.5,4.2,9.1,3.6c7.7-1.4,15.3-2.7,23.1-3.6c1.3-0.2,4.1,1.6,4.2,2.5c0.4,6.4,0.9,12.9,0.3,19.3c-0.7,7.7-3.1,9.5-11.3,9.2
		c-5.6-0.2-11.1-1.2-17.9-2c1.8,1.9,2.7,3.5,4.1,4.2c3.3,1.6,6.7,3.1,10.2,4c14.7,3.9,16.7,3.3,20.1-11.2c1.6-6.5,0.8-13.6,0.3-20.4
		c-0.4-6,0.5-7.3,6.9-6.1c2.1,0.4,4.2,1,6.3,1.1c1.1,0.1,2.2-0.7,3.3-1c-0.4-1-0.6-2.4-1.4-3c-1-0.8-2.5-1.4-3.8-1.5
		c-3.6-0.5-7.3-0.6-10.9-1.2c-1.4-0.2-2.7-1.3-4.1-2c0.7-1.2,1.1-2.7,2.1-3.4c1.8-1.3,3.8-2.6,6-3c6-1.1,12-2,18-2.6
		c3.8-0.4,5.7-2.5,6.3-5.6c0.6-3.1-1.8-4.7-4.7-5.2c-4.7-0.8-9.5-1.4-14.3-1.8c-5-0.4-10-0.5-15-0.7c1.3-2,2.9-3.3,4.6-4.4
		c4.1-2.8,8.5-5.4,12.4-8.5c5.1-4,4.5-8.6-0.9-11.8c-3.8-2.2-5.4-1.4-6.5,2.7c-1,3.7-2.7,7.3-4.1,10.9c-0.6,0.1-1.2,0.3-1.7,0.4
		c-0.7-6.7-5.4-9-11-10.5c-1-0.3-2.5-0.6-3-0.2c-0.6,0.5-0.7,2-0.4,2.9c1.7,5.6,4.2,10.6,11,13c-3.7,2.8-7.4,6.3-11.5,7
		c-6.9,1.1-14,5.6-21.3,0.6c-2.7,3.7-5.6,7.2-7.8,11c-2.3,4-1.6,6.9,1.4,8.4c3.1,1.5,6.5,0.4,9.1-3.1c0.6-0.8,0.7-1.8,1.4-2.4
		c1.8-1.7,3.6-3.6,5.8-4.8C475.5,51.3,478.2,50.9,480.7,50.1z M267.9,29.2c4.4,4.8,8.9,7.4,14.4,7.8c2.8,0.2,3.7,0.6,2.1,2.9
		c-3.8,5.8-7.6,11.6-11.8,17.1c-3.8,5.1-5.8,10.2-2.7,16.1c0.8,1.6,2.8,2.9,4.5,3.6c0.6,0.2,2.6-1.9,3.3-3.3c1.5-2.8,2.6-5.7,4-9
		c4.4,3.5,7,6.6,6.9,11.8c-0.2,11.8,0.3,23.5,0.6,35.3c0.1,5.9,0.1,11.8,0.4,17.7c0.1,1.7,1.4,3.4,2.1,5.1c0.6,0,1.3-0.1,1.9-0.1
		c0.4-2,1.3-4.1,1.2-6.1c-0.2-12.2-0.6-24.3-0.8-36.5c-0.1-4.3,0.2-8.6,0.3-12.8c0-2.5,0.7-4.1,3.8-2.5c1,0.5,2.1,0.9,3,1.5
		c3,1.9,5.7,1.7,7.7-1.3c4.2-6.3,8.5-12.7,12.4-19.2c0.6-0.9-0.5-3.5-1.6-4.4c-1.5-1.2-3.8-2.1-5.8-2.1c-5.6-0.1-11.3,0.4-16.9,0.4
		c-1.1,0-3-0.9-3.2-1.8c-2.5-9.2,1.8-15.1,11.8-16.6c0.7-0.1,1.6,0.2,2.1-0.2c0.8-0.6,2-1.9,1.8-2.2c-1.3-2-2.9-5.4-4.6-5.5
		c-5.3-0.3-11-0.2-15.8,1.5c-5,1.8-9.6,2.8-14.8,2.3C272.4,28.5,270.7,28.9,267.9,29.2z M180.1,77.8c0.6,1.6,1.4,4.8,3.1,7.7
		c1.9,3.2,4.1,3.2,7.1,0.7c3.1-2.5,5.4-2.3,7.7,0.9c1.6,2.2,3,5.6,6.2,4.1c2-0.9,3-4,4.3-6.3c0.4-0.6,0.2-1.6,0.2-2.4
		c0.1-6.8-0.1-13.7,0.2-20.5c0.2-5.3,0.4-10.7,1.7-15.8c0.8-3.3,0.4-5.3-2.1-7.4c-3.3-2.8-6.6-2.5-10.3-0.9
		c-5.1,2.2-9.9,4.4-15.8,1.8c-3.1-1.4-5.1,1-4.2,4.2c0.5,1.9,1.7,3.8,1.8,5.7C180.2,58.4,180.1,67.2,180.1,77.8z M154,60.4
		c0.7-0.2,1.4-0.4,2.1-0.6c1.1,1.3,1.9,3,3.3,3.7c2.3,1.1,5.3,2.6,7.4,2c2.8-0.7,3.1-3.7,1.9-6.5c-1-2.5-1.7-5.1-2.3-7.7
		c-1.6-7.4-1.6-14.7,3.9-20.9c2.1-2.4,1.1-4-1-5.3c-2.6-1.6-5.3-2.2-8.1,0.1c-2.4,1.9-5.1,3.5-7.9,4.8c-6.3,2.9-12.7,5.4-19.2,8.2
		c2.6,1.8,5.6,3.5,9.4,2.1c2.4-0.9,3.5-0.3,3.6,2.1c0.2,3.6,0.5,7.2,0.5,10.8c-0.1,19.1-0.4,38.3-0.3,57.4c0,1.5,2.1,2.9,3.2,4.4
		c1.2-1.5,3.2-2.9,3.3-4.5c0.4-6.8,0.3-13.6,0.3-20.4C154,80.2,154,70.3,154,60.4z M258,22.2c-0.5,6.2-0.6,11.2-1.2,16.1
		c-1.6,13.6-3,27.3-5.3,40.8c-1.2,7.1-4.6,13.8-6.5,20.7c-0.4,1.6,0.5,4.6,1.9,5.3c2.4,1.3,5.4,0.5,6.9-2.1c1-1.7,1.8-3.7,2.2-5.6
		c1.8-9.2,3.9-18.4,4.9-27.6c1.9-17.1,3.1-34.2,4.2-51.4c0.1-2-1.9-4.5-3.6-6.2c-0.7-0.7-3.2-0.1-4.6,0.4c-0.5,0.2-0.3,2.2-0.2,3.4
		C257.1,18.6,257.7,21,258,22.2z M29.2,24.2c0,0.1,0,0.2,0,0.3c-0.6,0-1.1,0-1.7,0c-5.8,0.1-6.7,1.4-5,6.6
		c2.3,7.3,8.1,10.5,15.3,12.4c3.5,0.9,5.5-0.4,6.5-3.4c3-9.1,0.2-12.9-8.3-14.8C33.6,24.8,31.4,24.6,29.2,24.2z M14,45.6
		c-2.5,0.9-4.2,1.5-5.8,2c0.8,1.5,1.3,3.2,2.3,4.5c1.6,1.9,3.4,3.6,5.4,5.1c3,2.4,6.5,4.2,10.5,2.9c1.7-0.6,3.5-2.4,3.9-4
		c0.3-1.3-0.9-3.8-2.2-4.5C23.5,49.3,18.6,47.5,14,45.6z M242.4,38.8c-1.1,1.8-1.9,2.7-2.3,3.7c-2.8,6.8-1,13.2,2.5,19.2
		c2.1,3.7,5.3,3.6,7.4,0c0.8-1.4,0.6-3.5,0.3-5.3c-0.6-4.2-1.6-8.3-2.1-12.5c-0.2-1.6,0.6-3.4,0.9-5.1c-0.2-0.1-0.5-0.1-0.7-0.2
		c-1.2,1.5-2.3,2.9-3.8,4.8C243.8,41.8,243.3,40.9,242.4,38.8z M483.6,36c-0.5-7.1-3-11.4-9-14.1c-3.4-1.5-4.8-0.4-5.6,2.3
		c-1.6,5.2,1.2,12.2,6.2,15c1.6,0.9,4.2,1.8,5.4,1.1C482.2,39.3,483,37,483.6,36z M356,70.4c-1.7,0.1-3.4,0.1-5.1,0.4
		c-1.4,0.3-2.6,1.2-3.9,1.8c0.8,1.3,1.2,3.4,2.3,3.9c4.3,1.7,8.9,3.1,13.4,4.2c0.7,0.2,2.6-1.5,2.8-2.5
		C366.5,73.2,363.4,70.8,356,70.4z"/>
	<path d="M323.8-262.7"/>
	<path d="M636.1,74.3c1.8,6,4.1,11.8,5.2,17.9c0.3,1.9-2.2,5.1-4.3,6.3c-9.1,5.2-18.9,5.7-28.7,1.7c-5.3-2.2-7.4-6.9-7.7-12.1
		c-0.3-4.9-0.1-9.8-0.1-15.4c-1.6,1.6-3.1,2.9-4.3,4.3c-5.5,6.3-11,12.6-16.5,18.9c-2.6,2.9-4.9,2.9-8.6-0.4
		c9.4-9.6,18.9-19.3,28.4-29c-4.9-0.5-8.9-0.8-13.6-1.3c-0.6,3-3.4,2.5-6.5,1.2c-2.9-1.2-5.9-2.4-9.7-3.9c-0.3,3.9-0.8,7.3-0.9,10.6
		c-0.1,10.7,0,21.5,0,32.2c0,1.1,0.4,2.4-0.1,3.2c-1,1.4-2.5,2.4-3.8,3.6c-0.9-1.2-2.6-2.5-2.6-3.7c-0.2-10.1-0.1-20.3-0.1-30.4
		c0-7.1,0.2-14.2,0-21.3c0-1.7-1.2-3.3-1.6-4.3c0.6-3.2,0.9-5.9,1.7-8.6c0.4-1.5,1.6-2.7,2.5-4c1.2,1.4,2.8,2.7,3.4,4.4
		c0.7,1.7,0.7,3.7,0.6,5.5c-0.3,4.4,2.9,5.5,7.6,7.1c-1.8-7.1-3.4-13.4-5.1-20.3c-5.9,3.1-10.6,2.2-13.5-2.8c6.6-4.5,13-9,19.7-13.1
		c1-0.6,3.7,0.1,4.8,1c1.4,1.1,2.8,3.3,2.6,4.8c-0.4,2.7-2,5.3-2.9,7.9c-0.7,2-1.1,4-2,7.2c4.5-3.2,7.9-5.6,11.3-7.9
		c0.5,0.2,0.8,0.3,1,0.5c1.5,1.3,2.9,3.7,4.4,3.7c3.8,0,2.5-3.3,2.3-5.3c-0.5-4-1.5-8-2.3-12.2c2.3-1.3,9.5-0.8,11.1,2.1
		c2,3.5,2.7,7.7,4.1,12.1c2.5,0,5.5-0.3,8.4,0.1c2.4,0.3,5.1,1,7.1,2.3c4,2.7,3.3,6-1.2,7.7c-1.8,0.7-3.7,1.7-5.6,1.9
		c-5.3,0.3-8.6,2.9-10.3,7.5c3.5,4,3.6,4.7-0.3,8.5c-2.7,2.6-3.5,5.6-3.6,9.1c-0.1,4.8-0.5,9.6-1,14.4c-0.4,4.1,2,8,6.4,8.7
		c4.3,0.7,8.8,1,13.1,0.6c6-0.5,8.5-4.1,8.9-10.8c0.2-3.1,0.5-6.3,0.8-9.4C635,74.6,635.5,74.5,636.1,74.3z M586.2,60.3
		c4.1-1.9,7.9-3.6,11.5-5.3c-2.4-2.2-4.2-3.8-6-5.5c0.3-0.5,0.5-1,0.8-1.5c3.5,0,6.9,0,10.4,0c5.9,0,9.9-2.9,11.9-9.4
		c-4.8,0.9-9.1,1.8-13.6,2.5c-4.5,0.7-7.7,2.5-10,6.4c-1.7,2.8-4.4,5.1-6.8,7.8C584.8,56.5,585.4,58,586.2,60.3z M608.5,56.2
		c-6.1-4.7-10.6-0.8-14,4.9C598.9,59.6,603.3,58,608.5,56.2z"/>
	<path d="M346.7,40.1c4.9-1.5,9.8-3.2,14.8-4.4c4.1-0.9,5.2-2.6,3.7-6.2c-1-2.5-1.6-5.2-2.2-7.8c-0.3-1.3-0.3-2.8-0.6-5
		c7.8,3.6,13.6,7.7,15.2,15.5c3.1-0.3,6.1-0.4,9-0.9c1-0.1,2.3-0.8,2.6-1.6c2.2-4.7,4.9-9.4,6.2-14.4c0.9-3.6,2.9-3.8,5.8-3.6
		c3.4,0.2,3.8,2.8,3.3,5c-0.7,3.4-2,6.7-3.1,10c-0.3,1-0.8,1.9-1.3,3.4c6,0.9,12.2-1.7,18.5,3.2c-3.5,1.2-6.2,3.2-8.6,2.8
		c-10.6-1.5-18,2-22.9,10.9c-0.9,1.6-2.3,3-4,5.1c2,0,3.4,0.3,4.7-0.1c4.1-1.1,8.2-2.2,12.1-3.8c2.8-1.1,4.5-0.2,6.6,1.3
		c2.1,1.5,2.8,3.2,1.8,5.5c-3.6,7.7-6.7,15.6-10.8,23c-3,5.4-3.6,5.1-10.4,3.6c0,4.9-0.5,9.8,0.2,14.4c0.4,3,2.7,5.8,6.6,6
		c6.3,0.3,12.7,0.8,19.1,0.5c4.9-0.2,8.3-3.2,9.2-7.7c1-5.2,1.3-10.6,1.9-15.9c0.1-1.2,0-2.5,0-3.7c0.5-0.1,1-0.1,1.5-0.2
		c0.8,4,1.9,8.1,2.5,12.1c0.5,3.4,0.6,6.9,0.7,10.4c0.2,6.9-2.4,10.3-9.6,10.6c-8.7,0.3-17.6,0-26.3-0.9c-8-0.9-11.8-6.9-11.3-14.4
		c0.5-7.7,0.1-15.5,0.1-23.9c-8.4,14.2-10.8,30.3-19.6,43.7c-0.5,0-1,0-1.4,0c-0.5-1.4-1.6-2.7-1.5-4.1c0.2-3.9,0.5-7.7,1.4-11.5
		c0.5-2.1,0.7-4.7,3.9-5.5c1-0.2,1.7-2.1,2.3-3.3c4.8-9.1,9.7-18.2,14.4-27.4c0.7-1.3,0.4-3,0.4-4.6c0-0.1-1.8-0.6-2.1-0.3
		c-1.3,1.1-3.2,2.3-3.4,3.8c-1.1,5.9-5.2,8.1-10.6,4.9c-3.2-1.9-6.1-4.4-8.9-6.9c-2.3-2-2.1-3.9,1.3-5c4.4-1.5,8.7-1.6,12.8,0.4
		c2.3,1.1,3.5,0.6,4.9-1.3c3.2-4.7,6.6-9.3,10.3-14.4c-2.4-0.4-4.1-0.7-5.7-1c-0.4,0.3-0.8,0.5-0.8,0.7c-2.1,7.6-2.1,7.5-9.3,3.7
		c-1.7-0.9-4.3-1-6.4-0.7c-3.5,0.6-6.8,2.2-10.2,2.7c-2.1,0.3-4.4-0.9-6.6-1.4C346.6,41.2,346.7,40.7,346.7,40.1z M396.6,57.8
		c-1.9,0.6-3.5,1-5,1.6c-1.1,0.4-2.7,1.1-2.8,1.9c-0.5,3.1-0.6,6.3-0.6,9.5c0,0.5,1.9,1.5,2.4,1.3C393.8,70.7,397.5,61.8,396.6,57.8
		z"/>
	<path d="M76.1,50.7c14.6,10,30.7,16,46.8,22.8c-3.3,3.2-6.8,3.7-10.2,2.5C99.8,71.4,87.4,66,76.6,58.1c-2.2-1.6-3.5-2-5.6,0.2
		c-3.2,3.3-6.7,6.2-10.1,9.2c-0.8,0.7-1.4,1.5-1.7,3.2c4-0.2,8-0.3,12-0.6c3-0.3,5.9-0.7,8.8-1.3c5.8-1.1,11.2,1.2,13.5,6.4
		c0.6,1.5,0.5,3.9-0.4,5.2c-2.6,4.2-5.5,8.2-8.6,12c-0.9,1.1-3,1.8-4.6,1.8c-2.2,0.1-4.5-0.6-6.7-0.9c-2.5-0.3-5.1-0.9-5.7,2.8
		c-0.1,0.8-2.6,2.1-3.6,1.8c-2.2-0.5-4.9-1.4-5.9-2.9c-2.1-3.1-3.2-6.8-4.7-10.3c-0.6-1.4-1.1-2.8-1.6-4.2c-1.1-3.4-2.7-5.3-6.6-2.6
		c-1,0.7-2.4,1.2-3.6,1.2c-4.8-0.3-5.7,2.8-6.7,6.2c-1.8,6.3-3.7,12.7-5.8,18.9c-0.5,1.5-1.9,3.2-3.3,3.7c-0.8,0.3-2.9-1.4-3.7-2.7
		c-4.5-7.3-4.4-14.9-1.5-22.6c0.7,0.2,1.1,0.1,1.2,0.3c3.6,4.6,3.7,4.7,6.7-0.3c3.9-6.6,7.5-13.3,11.2-19.9c0.8-1.3,1.7-2.6,2.5-3.9
		c0.5,0.2,1,0.4,1.6,0.6c-1.2,4.1-2.5,8.1-4,12.9c1.5-0.5,2.6-0.7,3.6-1.2C52,66.5,58.9,60,64.9,52.6c0.6-0.7,0.9-2.6,0.4-3.1
		c-2.1-1.9-4.4-4.4-7-5c-3.6-0.7-7.2-0.8-10.3-3.7c3.1-2.2,6.1-3.9,8.6-6.2C62.6,29.2,68.2,23.5,74,18c0.8-0.8,2-1.2,3-1.8
		c0.7,1.2,2.1,2.5,2,3.7c-0.2,1.9-1.3,3.6-2.2,5.8c3.1-0.3,6.2-0.9,9.3-0.7c1.9,0.1,4.4,0.8,5.4,2.1c0.7,0.8-0.4,3.4-1.4,4.8
		C85.7,38,81,44.1,76.1,50.7z M82.3,75.6c-1.6,0-3.1-0.2-4.5,0c-3.9,0.8-7.7,1.7-11.5,2.8c-2.1,0.6-4.7,1.2-3.4,4.3
		c1.2,2.8,1.2,6.6,6.4,5.9C78.8,87.4,80.3,86,82.3,75.6z M63,41.4c1.9,1.5,3.4,3,5.2,4c0.9,0.5,3.1,0.7,3.5,0.2
		c4-5.2,7.8-10.6,12.2-16.7C73.1,28.2,69.1,35.4,63,41.4z"/>
	<path d="M480.7,50.1c-2.5,0.7-5.3,1.2-7.6,2.4c-2.2,1.2-4,3.1-5.8,4.8c-0.7,0.6-0.9,1.7-1.4,2.4c-2.5,3.5-6,4.7-9.1,3.1
		c-3-1.5-3.8-4.3-1.4-8.4c2.2-3.8,5.1-7.3,7.8-11c7.3,5,14.4,0.5,21.3-0.6c4.2-0.7,7.8-4.2,11.5-7c-6.9-2.5-9.4-7.5-11-13
		c-0.3-0.9-0.2-2.4,0.4-2.9c0.5-0.5,2-0.1,3,0.2c5.6,1.5,10.4,3.8,11,10.5c0.6-0.1,1.2-0.3,1.7-0.4c1.4-3.6,3.1-7.2,4.1-10.9
		c1.1-4.1,2.7-4.9,6.5-2.7c5.4,3.2,5.9,7.8,0.9,11.8c-3.9,3.1-8.3,5.7-12.4,8.5c-1.7,1.1-3.3,2.3-4.6,4.4c5,0.2,10,0.3,15,0.7
		c4.8,0.4,9.6,1,14.3,1.8c2.9,0.5,5.3,2.1,4.7,5.2c-0.6,3-2.4,5.2-6.3,5.6c-6,0.6-12.1,1.5-18,2.6c-2.1,0.4-4.2,1.7-6,3
		c-1,0.7-1.4,2.2-2.1,3.4c1.4,0.7,2.7,1.7,4.1,2c3.6,0.6,7.3,0.7,10.9,1.2c1.3,0.2,2.8,0.7,3.8,1.5c0.8,0.7,1,2,1.4,3
		c-1.1,0.4-2.2,1.1-3.3,1c-2.1-0.1-4.2-0.8-6.3-1.1c-6.4-1.1-7.3,0.1-6.9,6.1c0.5,6.8,1.2,13.9-0.3,20.4
		c-3.5,14.5-5.4,15.1-20.1,11.2c-3.5-0.9-6.9-2.4-10.2-4c-1.4-0.7-2.3-2.3-4.1-4.2c6.8,0.8,12.3,1.8,17.9,2
		c8.2,0.3,10.6-1.5,11.3-9.2c0.6-6.4,0.2-12.9-0.3-19.3c-0.1-1-2.8-2.7-4.2-2.5c-7.7,0.9-15.4,2.2-23.1,3.6c-3.6,0.7-6.8,1-9.1-3.6
		c10.8-3.7,22-3.9,34-5.3c-2.1-2.4-3.4-4-5-5.9c-0.8,1.1-1.1,2.1-1.7,2.3c-2,0.6-4.3,1.6-6.1,1.2c-1-0.2-2.1-3-1.9-4.5
		C478.7,56.3,479.9,53.3,480.7,50.1z M487.2,53.4c3.7-1.6,7.3-3.1,10.8-4.7c2.4-1.1,5.7,0.1,7,2.8c0.4,0.7,0.7,1.5,1.2,2.8
		c3-2.3,5.5-4.1,8.7-6.5c-11.4-3.3-21,0.2-31.6,1.2C484.9,50.7,485.9,51.9,487.2,53.4z M488.4,58.2c5,1.4,5.5,0.9,5.3-5.7
		C492,54.3,490.3,56.1,488.4,58.2z"/>
	<path d="M267.9,29.2c2.8-0.2,4.5-0.7,6.2-0.5c5.2,0.5,9.8-0.5,14.8-2.3c4.8-1.8,10.6-1.8,15.8-1.5c1.7,0.1,3.3,3.5,4.6,5.5
		c0.2,0.3-1,1.6-1.8,2.2c-0.5,0.3-1.4,0.1-2.1,0.2c-10,1.5-14.3,7.4-11.8,16.6c0.2,0.8,2.1,1.8,3.2,1.8c5.6,0,11.3-0.5,16.9-0.4
		c2,0,4.3,0.9,5.8,2.1c1.1,0.9,2.2,3.4,1.6,4.4c-3.9,6.5-8.2,12.8-12.4,19.2c-2,3-4.7,3.1-7.7,1.3c-0.9-0.6-2-1-3-1.5
		c-3.1-1.6-3.7,0-3.8,2.5c-0.1,4.3-0.4,8.6-0.3,12.8c0.2,12.2,0.6,24.3,0.8,36.5c0,2-0.8,4.1-1.2,6.1c-0.6,0-1.3,0.1-1.9,0.1
		c-0.7-1.7-2-3.4-2.1-5.1c-0.4-5.9-0.3-11.8-0.4-17.7c-0.2-11.8-0.7-23.5-0.6-35.3c0.1-5.2-2.5-8.3-6.9-11.8c-1.4,3.3-2.5,6.3-4,9
		c-0.7,1.4-2.8,3.5-3.3,3.3c-1.8-0.7-3.7-2.1-4.5-3.6c-3.1-5.8-1.1-11,2.7-16.1c4.2-5.5,8-11.4,11.8-17.1c1.5-2.3,0.6-2.7-2.1-2.9
		C276.8,36.6,272.3,34,267.9,29.2z M293.5,62.2c0.6,6.9,0.6,6.7,5.6,7.7c2.8,0.6,4.3-0.3,5.4-2.6c1.3-2.7,2.5-5.4,3.9-8
		c1.3-2.6-0.1-4.3-2.4-4.4c-3.6-0.1-7.4,0.2-10.7,1.3C294.1,56.7,294.1,60.1,293.5,62.2z M287.4,43.8c-0.5-0.2-1.1-0.3-1.6-0.5
		c-1.4,3.1-2.9,6.2-4,9.4c-0.2,0.7,1.5,2.7,2.2,2.6c1.2-0.1,3.1-1.2,3.2-2.1C287.6,50.1,287.4,47,287.4,43.8z"/>
	<path d="M180.1,77.8c0-10.5,0.1-19.4-0.1-28.2c0-1.9-1.2-3.8-1.8-5.7c-0.9-3.3,1.1-5.6,4.2-4.2c5.9,2.6,10.8,0.4,15.8-1.8
		c3.6-1.5,7-1.9,10.3,0.9c2.5,2.1,2.9,4.2,2.1,7.4c-1.3,5.1-1.5,10.5-1.7,15.8c-0.3,6.8-0.1,13.6-0.2,20.5c0,0.8,0.2,1.7-0.2,2.4
		c-1.3,2.2-2.3,5.4-4.3,6.3c-3.2,1.4-4.7-2-6.2-4.1c-2.3-3.2-4.6-3.4-7.7-0.9c-3,2.5-5.2,2.5-7.1-0.7
		C181.5,82.6,180.7,79.3,180.1,77.8z M190.4,56.1c2.4,0.1,4.6-0.1,6.5,0.4c1.9,0.5,3.5,1.8,5.6,2.9c0-3.7,0-6.9,0-10.1
		c0-0.9-0.4-1.8-0.4-2.8c-0.1-2.4-1.3-2.8-3.7-2.5C190.9,45.1,188.9,48,190.4,56.1z M197.5,64c-2.7-0.7-5.9-3.3-6.8,0
		c-1.1,3.6,0.1,7.9,0.4,11.8c0,0.4,0.8,0.8,1.3,1c2.8,1,5.5,2,8.8,3.2c0-4.3,0-8.7,0-13.1c-1.6,0.5-3.6,1-5.5,1.5
		c-0.1-0.3-0.3-0.6-0.4-0.9C195.8,66.5,196.4,65.6,197.5,64z"/>
	<path d="M154,60.4c0,9.9,0,19.7,0,29.6c0,6.8,0.1,13.6-0.3,20.4c-0.1,1.6-2.2,3-3.3,4.5c-1.1-1.5-3.2-2.9-3.2-4.4
		c0-19.1,0.2-38.3,0.3-57.4c0-3.6-0.3-7.2-0.5-10.8c-0.1-2.4-1.2-3-3.6-2.1c-3.8,1.4-6.7-0.3-9.4-2.1c6.5-2.7,12.9-5.3,19.2-8.2
		c2.8-1.3,5.5-2.9,7.9-4.8c2.9-2.3,5.5-1.7,8.1-0.1c2.2,1.3,3.1,2.9,1,5.3c-5.5,6.2-5.5,13.5-3.9,20.9c0.6,2.6,1.2,5.3,2.3,7.7
		c1.2,2.8,0.9,5.7-1.9,6.5c-2.1,0.6-5.1-0.9-7.4-2c-1.4-0.7-2.2-2.4-3.3-3.7C155.4,60.1,154.7,60.3,154,60.4z M151.6,36.6
		c1.3,2,3.1,3.7,3.4,5.5c0.5,3.4-0.1,6.9,0.2,10.4c0.1,1.4,1.2,3.1,2.4,3.9c0.9,0.6,3.3,0.6,3.9,0c1-1.1,1.8-3,1.6-4.5
		c-0.3-4.1-1.2-8.2-1.8-12.2c-0.4-2.7-0.6-5.3-1-8.6C156.8,33.3,154.1,35,151.6,36.6z"/>
	<path d="M258,22.2c-0.3-1.2-0.8-3.6-1.2-6.1c-0.2-1.2-0.3-3.2,0.2-3.4c1.4-0.6,3.9-1.1,4.6-0.4c1.7,1.7,3.7,4.1,3.6,6.2
		c-1.1,17.1-2.4,34.3-4.2,51.4c-1,9.3-3.2,18.4-4.9,27.6c-0.4,1.9-1.2,3.9-2.2,5.6c-1.5,2.6-4.5,3.4-6.9,2.1
		c-1.3-0.7-2.3-3.7-1.9-5.3c1.9-7,5.3-13.7,6.5-20.7c2.4-13.5,3.7-27.2,5.3-40.8C257.4,33.4,257.5,28.5,258,22.2z"/>
	<path d="M29.2,24.2c2.2,0.3,4.5,0.5,6.7,1.1c8.6,2,11.4,5.7,8.3,14.8c-1,3-3,4.3-6.5,3.4c-7.2-1.9-13-5.1-15.3-12.4
		c-1.6-5.2-0.8-6.6,5-6.6c0.6,0,1.1,0,1.7,0C29.1,24.4,29.1,24.3,29.2,24.2z"/>
	<path d="M14,45.6c4.6,1.9,9.5,3.7,14.2,6c1.3,0.7,2.5,3.2,2.2,4.5c-0.4,1.6-2.3,3.5-3.9,4c-4,1.3-7.5-0.5-10.5-2.9
		c-2-1.5-3.8-3.2-5.4-5.1c-1.1-1.3-1.6-3-2.3-4.5C9.9,47.1,11.5,46.5,14,45.6z"/>
	<path d="M242.4,38.8c1,2,1.4,2.9,2.1,4.5c1.5-1.9,2.6-3.3,3.8-4.8c0.2,0.1,0.5,0.1,0.7,0.2c-0.3,1.7-1.1,3.4-0.9,5.1
		c0.5,4.2,1.5,8.3,2.1,12.5c0.2,1.7,0.5,3.9-0.3,5.3c-2.1,3.7-5.3,3.7-7.4,0c-3.5-6-5.3-12.4-2.5-19.2
		C240.5,41.5,241.3,40.6,242.4,38.8z"/>
	<path d="M483.6,36c-0.6,0.9-1.3,3.3-2.9,4.2c-1.2,0.7-3.8-0.2-5.4-1.1c-5.1-2.8-7.9-9.7-6.2-15c0.8-2.7,2.2-3.8,5.6-2.3
		C480.5,24.6,483.1,29,483.6,36z"/>
	<path d="M356,70.4c7.4,0.4,10.5,2.8,9.6,7.8c-0.2,1-2.1,2.7-2.8,2.5c-4.6-1.1-9.1-2.5-13.4-4.2c-1.2-0.5-1.6-2.6-2.3-3.9
		c1.3-0.6,2.5-1.5,3.9-1.8C352.6,70.5,354.3,70.6,356,70.4z"/>
	<path class="st1" d="M586.2,60.3c-0.8-2.3-1.3-3.8-1.7-5c2.4-2.7,5.1-5,6.8-7.8c2.3-3.9,5.5-5.7,10-6.4c4.4-0.7,8.8-1.6,13.6-2.5
		c-2,6.4-6,9.4-11.9,9.4c-3.5,0-6.9,0-10.4,0c-0.3,0.5-0.5,1-0.8,1.5c1.8,1.7,3.6,3.3,6,5.5C594.1,56.7,590.3,58.4,586.2,60.3z"/>
	<path class="st1" d="M608.5,56.2c-5.3,1.8-9.6,3.4-14,4.9C597.9,55.4,602.4,51.5,608.5,56.2z"/>
	<path class="st1" d="M396.6,57.8c0.9,4-2.8,12.9-6,14.3c-0.5,0.2-2.4-0.8-2.4-1.3c0-3.2,0.1-6.4,0.6-9.5c0.1-0.8,1.7-1.5,2.8-1.9
		C393.1,58.8,394.7,58.4,396.6,57.8z"/>
	<path class="st1" d="M82.3,75.6c-2,10.4-3.5,11.8-13,13.1c-5.2,0.7-5.1-3.1-6.4-5.9c-1.4-3.1,1.2-3.7,3.4-4.3
		c3.8-1.1,7.6-2,11.5-2.8C79.2,75.4,80.7,75.6,82.3,75.6z"/>
	<path class="st1" d="M63,41.4c6.1-6,10.1-13.2,20.9-12.5c-4.4,6.1-8.1,11.5-12.2,16.7c-0.4,0.5-2.6,0.4-3.5-0.2
		C66.4,44.4,64.9,42.9,63,41.4z"/>
	<path class="st1" d="M488.4,58.2c2-2.1,3.7-3.9,5.3-5.7C493.8,59.1,493.3,59.6,488.4,58.2z"/>
	<path class="st1" d="M293.5,62.2c0.6-2.1,0.6-5.5,1.9-5.9c3.3-1.2,7.1-1.5,10.7-1.3c2.3,0.1,3.7,1.9,2.4,4.4
		c-1.4,2.6-2.6,5.3-3.9,8c-1.1,2.2-2.6,3.1-5.4,2.6C294.1,68.9,294.1,69.1,293.5,62.2z"/>
	<path class="st1" d="M487.2,53.4c-1.3-1.5-2.3-2.7-3.7-4.5c10.6-1,20.2-4.5,31.6-1.2c-3.2,2.4-5.7,4.3-8.7,6.5
		c-0.6-1.3-0.9-2.1-1.2-2.8c-1.4-2.7-4.6-3.9-7-2.8C494.5,50.3,490.9,51.8,487.2,53.4z"/>
	<path class="st1" d="M287.4,43.8c0,3.1,0.2,6.3-0.2,9.4c-0.1,0.9-2,2-3.2,2.1c-0.7,0.1-2.4-2-2.2-2.6c1-3.2,2.6-6.2,4-9.4
		C286.3,43.5,286.9,43.7,287.4,43.8z"/>
	<path class="st1" d="M190.4,56.1c-1.5-8.1,0.5-10.9,8-12c2.3-0.3,3.6,0.1,3.7,2.5c0,0.9,0.4,1.8,0.4,2.8c0.1,3.2,0,6.4,0,10.1
		c-2.1-1.1-3.8-2.4-5.6-2.9C195,56,192.8,56.2,190.4,56.1z"/>
	<path class="st1" d="M197.5,64c-1.1,1.6-1.7,2.6-2.4,3.5c0.1,0.3,0.3,0.6,0.4,0.9c1.9-0.5,3.8-1.1,5.5-1.5c0,4.4,0,8.8,0,13.1
		c-3.2-1.2-6-2.1-8.8-3.2c-0.5-0.2-1.2-0.6-1.3-1c-0.3-4-1.4-8.2-0.4-11.8C191.6,60.6,194.7,63.2,197.5,64z"/>
	<path class="st1" d="M151.6,36.6c2.5-1.6,5.2-3.3,8.8-5.5c0.4,3.3,0.6,5.9,1,8.6c0.6,4.1,1.5,8.1,1.8,12.2c0.1,1.5-0.6,3.4-1.6,4.5
		c-0.6,0.7-3.1,0.6-3.9,0c-1.2-0.8-2.2-2.5-2.4-3.9c-0.3-3.4,0.3-7-0.2-10.4C154.8,40.2,152.9,38.6,151.6,36.6z"/>
</g>
<g>
	<path d="M24.2,157.8l-1,9.2H-0.1v-0.7h0.9c0.8,0,1.4-0.1,1.8-0.4c0.3-0.2,0.6-0.5,0.8-0.9c0.1-0.3,0.2-1.1,0.2-2.4v-17.3
		c0-1.3-0.1-2.2-0.2-2.5c-0.1-0.3-0.4-0.6-0.9-0.9c-0.4-0.3-1-0.4-1.7-0.4h-0.9v-0.7h14v0.7h-1.1c-0.8,0-1.4,0.1-1.8,0.4
		c-0.3,0.2-0.6,0.5-0.8,0.9c-0.1,0.3-0.2,1.1-0.2,2.4V162c0,1.3,0.1,2.2,0.2,2.6c0.2,0.4,0.5,0.6,0.9,0.8c0.3,0.1,1.1,0.2,2.3,0.2
		h2.2c1.4,0,2.6-0.2,3.5-0.7c0.9-0.5,1.7-1.3,2.4-2.3c0.7-1.1,1.3-2.6,1.9-4.7H24.2z"/>
	<path d="M26.7,140.8h13.5v0.7h-0.7c-1,0-1.7,0.1-2.1,0.3c-0.4,0.2-0.7,0.5-0.8,0.9s-0.2,1.3-0.2,2.8v12.9c0,2.4,0.2,3.9,0.5,4.7
		c0.4,0.8,0.9,1.4,1.7,1.9c0.8,0.5,1.8,0.8,3.1,0.8c1.4,0,2.6-0.3,3.6-1s1.7-1.5,2.2-2.6c0.5-1.1,0.7-3.1,0.7-5.9v-10.7
		c0-1.2-0.1-2-0.4-2.5c-0.2-0.5-0.6-0.9-0.9-1c-0.6-0.3-1.4-0.4-2.5-0.4v-0.7h9.1v0.7h-0.5c-0.7,0-1.3,0.1-1.8,0.4
		c-0.5,0.3-0.8,0.7-1.1,1.3c-0.2,0.4-0.3,1.2-0.3,2.2v10c0,3.1-0.2,5.3-0.6,6.7s-1.4,2.6-3,3.8c-1.6,1.2-3.7,1.7-6.4,1.7
		c-2.3,0-4-0.3-5.3-0.9c-1.7-0.8-2.9-1.9-3.6-3.2s-1-3-1-5.2v-12.9c0-1.5-0.1-2.5-0.3-2.8c-0.2-0.4-0.5-0.7-0.9-0.9
		s-1.2-0.3-2.3-0.3V140.8z"/>
	<path d="M69.8,140.4c4.2-0.2,7.6,1.1,10.2,3.7c2.6,2.6,3.9,5.9,3.9,9.8c0,3.3-1,6.3-2.9,8.8c-2.6,3.4-6.2,5-10.9,5
		c-4.7,0-8.4-1.6-10.9-4.8c-2-2.5-3.1-5.5-3.1-9c0-3.9,1.3-7.2,4-9.8S65.9,140.2,69.8,140.4z M70,141.6c-2.4,0-4.2,1.2-5.5,3.7
		c-1,2-1.5,4.9-1.5,8.7c0,4.5,0.8,7.8,2.4,10c1.1,1.5,2.6,2.3,4.6,2.3c1.3,0,2.4-0.3,3.3-1c1.1-0.8,2-2.2,2.6-4
		c0.6-1.8,0.9-4.2,0.9-7.1c0-3.5-0.3-6.1-1-7.8s-1.5-2.9-2.5-3.7C72.5,142,71.3,141.6,70,141.6z"/>
	<path d="M113.6,140.8v0.7c-0.9,0.1-1.5,0.4-2,0.8c-0.6,0.5-1.7,2-3.1,4.4l-5.7,9.5v6.4c0,1.4,0.1,2.2,0.2,2.5
		c0.1,0.3,0.4,0.6,0.8,0.9c0.4,0.3,1,0.4,1.7,0.4h1.5v0.7H92.3v-0.7h1.4c0.8,0,1.4-0.1,1.8-0.4c0.3-0.2,0.6-0.5,0.8-0.9
		c0.1-0.3,0.2-1.1,0.2-2.4v-5.3L90.4,146c-1.2-2.2-2.1-3.5-2.6-3.9c-0.5-0.4-1.2-0.6-2-0.6v-0.7h12.6v0.7h-0.6
		c-0.8,0-1.3,0.1-1.6,0.3c-0.3,0.2-0.5,0.5-0.5,0.7c0,0.5,0.5,1.6,1.5,3.5l4.7,8.7l4.7-7.9c1.2-1.9,1.8-3.2,1.8-3.9
		c0-0.3-0.2-0.6-0.5-0.9c-0.4-0.3-1.2-0.5-2.4-0.6v-0.7H113.6z"/>
	<path d="M127,159.6h-9.3l-1.1,2.6c-0.4,0.9-0.5,1.6-0.5,2.1c0,0.7,0.3,1.3,0.9,1.6c0.3,0.2,1.2,0.4,2.6,0.5v0.7h-8.7v-0.7
		c0.9-0.1,1.7-0.5,2.3-1.2s1.4-2,2.2-4l9.4-21h0.4l9.4,21.6c0.9,2,1.6,3.3,2.2,3.9c0.4,0.4,1.1,0.6,1.9,0.7v0.7H126v-0.7h0.5
		c1,0,1.7-0.1,2.1-0.4c0.3-0.2,0.4-0.5,0.4-0.9c0-0.2,0-0.5-0.1-0.7c0-0.1-0.2-0.6-0.6-1.5L127,159.6z M126.3,158.1l-3.9-9.1l-4,9.1
		H126.3z"/>
	<path d="M149.1,140.8l12.9,16.3v-11.3c0-1.6-0.2-2.6-0.7-3.2c-0.6-0.8-1.7-1.1-3.1-1.1v-0.7h8.7v0.7c-1.1,0.1-1.9,0.3-2.2,0.6
		c-0.4,0.2-0.7,0.6-0.9,1.1c-0.2,0.5-0.3,1.4-0.3,2.6v21.9h-0.7l-17.7-21.9v16.7c0,1.5,0.3,2.5,1,3.1c0.7,0.5,1.5,0.8,2.4,0.8h0.6
		v0.7h-9.3v-0.7c1.4,0,2.4-0.3,3-0.9s0.9-1.6,0.9-3v-18.6l-0.6-0.7c-0.6-0.7-1-1.2-1.5-1.4c-0.4-0.2-1-0.3-1.8-0.4v-0.7H149.1z"/>
	<path d="M195.3,140.2v9.3h-0.7c-0.9-2.5-2.2-4.5-3.9-5.8c-1.7-1.3-3.6-2-5.7-2c-2,0-3.6,0.6-4.9,1.7c-1.3,1.1-2.2,2.6-2.8,4.6
		c-0.5,2-0.8,4-0.8,6.1c0,2.5,0.3,4.7,0.9,6.6c0.6,1.9,1.5,3.3,2.9,4.2s2.9,1.3,4.7,1.3c0.6,0,1.3-0.1,1.9-0.2
		c0.7-0.1,1.3-0.3,2-0.6v-5.5c0-1-0.1-1.7-0.2-2s-0.4-0.6-0.9-0.8c-0.4-0.2-1-0.4-1.6-0.4h-0.7V156h12.7v0.7c-1,0.1-1.6,0.2-2,0.4
		c-0.4,0.2-0.7,0.5-0.9,1c-0.1,0.2-0.2,0.8-0.2,1.8v5.5c-1.7,0.8-3.4,1.3-5.2,1.7c-1.8,0.4-3.7,0.6-5.6,0.6c-2.5,0-4.6-0.3-6.2-1
		c-1.6-0.7-3.1-1.6-4.3-2.7c-1.3-1.1-2.2-2.4-2.9-3.7c-0.9-1.8-1.4-3.8-1.4-6c0-4,1.4-7.3,4.2-10c2.8-2.7,6.3-4.1,10.5-4.1
		c1.3,0,2.5,0.1,3.5,0.3c0.6,0.1,1.5,0.4,2.8,0.9c1.3,0.5,2,0.7,2.3,0.7c0.4,0,0.7-0.1,1-0.4c0.3-0.3,0.6-0.8,0.9-1.5H195.3z"/>
	<path d="M218.8,140.8l12.9,16.3v-11.3c0-1.6-0.2-2.6-0.7-3.2c-0.6-0.8-1.7-1.1-3.1-1.1v-0.7h8.7v0.7c-1.1,0.1-1.9,0.3-2.2,0.6
		c-0.4,0.2-0.7,0.6-0.9,1.1c-0.2,0.5-0.3,1.4-0.3,2.6v21.9h-0.7l-17.7-21.9v16.7c0,1.5,0.3,2.5,1,3.1c0.7,0.5,1.5,0.8,2.4,0.8h0.6
		v0.7h-9.3v-0.7c1.4,0,2.4-0.3,3-0.9s0.9-1.6,0.9-3v-18.6l-0.6-0.7c-0.6-0.7-1-1.2-1.5-1.4c-0.4-0.2-1-0.3-1.8-0.4v-0.7H218.8z"/>
	<path d="M253,140.4c4.2-0.2,7.6,1.1,10.2,3.7c2.6,2.6,3.9,5.9,3.9,9.8c0,3.3-1,6.3-2.9,8.8c-2.6,3.4-6.2,5-10.9,5
		c-4.7,0-8.4-1.6-10.9-4.8c-2-2.5-3.1-5.5-3.1-9c0-3.9,1.3-7.2,4-9.8S249.1,140.2,253,140.4z M253.2,141.6c-2.4,0-4.2,1.2-5.5,3.7
		c-1,2-1.5,4.9-1.5,8.7c0,4.5,0.8,7.8,2.4,10c1.1,1.5,2.6,2.3,4.6,2.3c1.3,0,2.4-0.3,3.3-1c1.1-0.8,2-2.2,2.6-4
		c0.6-1.8,0.9-4.2,0.9-7.1c0-3.5-0.3-6.1-1-7.8s-1.5-2.9-2.5-3.7C255.7,142,254.5,141.6,253.2,141.6z"/>
	<path d="M279.2,155.1v7.4c0,1.4,0.1,2.3,0.3,2.7c0.2,0.4,0.5,0.7,0.9,0.9c0.4,0.2,1.3,0.3,2.5,0.3v0.7h-13.4v-0.7
		c1.2,0,2-0.1,2.5-0.3c0.4-0.2,0.7-0.5,0.9-0.9c0.2-0.4,0.3-1.3,0.3-2.7v-17.1c0-1.4-0.1-2.3-0.3-2.7c-0.2-0.4-0.5-0.7-0.9-0.9
		c-0.4-0.2-1.3-0.3-2.5-0.3v-0.7h12.2c3.2,0,5.5,0.2,7,0.7c1.5,0.4,2.7,1.3,3.6,2.4c0.9,1.2,1.4,2.6,1.4,4.2c0,1.9-0.7,3.5-2.1,4.8
		c-0.9,0.8-2.1,1.4-3.7,1.8l6.3,8.9c0.8,1.2,1.4,1.9,1.8,2.2c0.5,0.4,1.1,0.6,1.8,0.7v0.7h-8.2l-8.4-12H279.2z M279.2,142.2v11.5
		h1.1c1.8,0,3.1-0.2,4-0.5c0.9-0.3,1.6-0.9,2.1-1.8s0.8-2,0.8-3.4c0-2-0.5-3.5-1.4-4.4c-0.9-1-2.4-1.4-4.5-1.4H279.2z"/>
	<path d="M316.2,158.1l7.1-17.3H334v0.7h-0.8c-0.8,0-1.4,0.1-1.9,0.4c-0.3,0.2-0.6,0.5-0.8,0.9c-0.1,0.3-0.2,1.1-0.2,2.4v17.3
		c0,1.3,0.1,2.2,0.2,2.5c0.1,0.3,0.4,0.6,0.9,0.9c0.4,0.3,1,0.4,1.8,0.4h0.8v0.7h-13.7v-0.7h0.8c0.8,0,1.4-0.1,1.9-0.4
		c0.3-0.2,0.6-0.5,0.8-0.9c0.1-0.3,0.2-1.1,0.2-2.4v-19.5l-10,24h-0.5l-10.2-23.8v18.5c0,1.3,0,2.1,0.1,2.4c0.2,0.6,0.5,1.2,1.1,1.6
		s1.4,0.6,2.6,0.6v0.7h-9v-0.7h0.3c0.6,0,1.1-0.1,1.6-0.3c0.5-0.2,0.9-0.5,1.1-0.8c0.3-0.3,0.5-0.8,0.6-1.4c0-0.1,0-0.8,0-2v-16.6
		c0-1.3-0.1-2.2-0.2-2.5c-0.1-0.3-0.4-0.6-0.9-0.9c-0.4-0.3-1-0.4-1.8-0.4h-0.8v-0.7h10.7L316.2,158.1z"/>
	<path d="M351.4,159.6h-9.3l-1.1,2.6c-0.4,0.9-0.5,1.6-0.5,2.1c0,0.7,0.3,1.3,0.9,1.6c0.3,0.2,1.2,0.4,2.6,0.5v0.7h-8.7v-0.7
		c0.9-0.1,1.7-0.5,2.3-1.2c0.6-0.6,1.4-2,2.2-4l9.4-21h0.4l9.4,21.6c0.9,2,1.6,3.3,2.2,3.9c0.4,0.4,1.1,0.6,1.9,0.7v0.7h-12.7v-0.7
		h0.5c1,0,1.7-0.1,2.1-0.4c0.3-0.2,0.4-0.5,0.4-0.9c0-0.2,0-0.5-0.1-0.7c0-0.1-0.2-0.6-0.6-1.5L351.4,159.6z M350.7,158.1l-3.9-9.1
		l-4,9.1H350.7z"/>
	<path d="M388.6,157.8l-1,9.2h-23.3v-0.7h0.9c0.8,0,1.4-0.1,1.8-0.4c0.3-0.2,0.6-0.5,0.8-0.9c0.1-0.3,0.2-1.1,0.2-2.4v-17.3
		c0-1.3-0.1-2.2-0.2-2.5c-0.1-0.3-0.4-0.6-0.9-0.9c-0.4-0.3-1-0.4-1.7-0.4h-0.9v-0.7h14v0.7h-1.1c-0.8,0-1.4,0.1-1.8,0.4
		c-0.3,0.2-0.6,0.5-0.8,0.9c-0.1,0.3-0.2,1.1-0.2,2.4V162c0,1.3,0.1,2.2,0.2,2.6c0.2,0.4,0.5,0.6,0.9,0.8c0.3,0.1,1.1,0.2,2.3,0.2
		h2.2c1.4,0,2.6-0.2,3.5-0.7c0.9-0.5,1.7-1.3,2.4-2.3c0.7-1.1,1.3-2.6,1.9-4.7H388.6z"/>
	<path d="M399,140.8h13.5v0.7h-0.7c-1,0-1.7,0.1-2.1,0.3c-0.4,0.2-0.7,0.5-0.8,0.9c-0.2,0.4-0.2,1.3-0.2,2.8v12.9
		c0,2.4,0.2,3.9,0.5,4.7c0.4,0.8,0.9,1.4,1.7,1.9c0.8,0.5,1.8,0.8,3.1,0.8c1.4,0,2.6-0.3,3.6-1s1.7-1.5,2.2-2.6s0.7-3.1,0.7-5.9
		v-10.7c0-1.2-0.1-2-0.4-2.5c-0.2-0.5-0.6-0.9-0.9-1c-0.6-0.3-1.4-0.4-2.5-0.4v-0.7h9.1v0.7h-0.5c-0.7,0-1.3,0.1-1.8,0.4
		s-0.8,0.7-1.1,1.3c-0.2,0.4-0.3,1.2-0.3,2.2v10c0,3.1-0.2,5.3-0.6,6.7c-0.4,1.4-1.4,2.6-3,3.8c-1.6,1.2-3.7,1.7-6.4,1.7
		c-2.3,0-4-0.3-5.3-0.9c-1.7-0.8-2.9-1.9-3.6-3.2s-1-3-1-5.2v-12.9c0-1.5-0.1-2.5-0.3-2.8c-0.2-0.4-0.5-0.7-0.9-0.9
		s-1.2-0.3-2.3-0.3V140.8z"/>
	<path d="M436.6,140.8l12.9,16.3v-11.3c0-1.6-0.2-2.6-0.7-3.2c-0.6-0.8-1.7-1.1-3.1-1.1v-0.7h8.7v0.7c-1.1,0.1-1.9,0.3-2.2,0.6
		c-0.4,0.2-0.7,0.6-0.9,1.1c-0.2,0.5-0.3,1.4-0.3,2.6v21.9h-0.7l-17.7-21.9v16.7c0,1.5,0.3,2.5,1,3.1c0.7,0.5,1.5,0.8,2.4,0.8h0.6
		v0.7h-9.3v-0.7c1.4,0,2.4-0.3,3-0.9s0.9-1.6,0.9-3v-18.6l-0.6-0.7c-0.6-0.7-1-1.2-1.5-1.4c-0.4-0.2-1-0.3-1.8-0.4v-0.7H436.6z"/>
	<path d="M470,166.3v0.7h-13.7v-0.7h0.9c0.8,0,1.4-0.1,1.8-0.4c0.3-0.2,0.6-0.5,0.8-0.9c0.1-0.3,0.2-1.1,0.2-2.4v-17.3
		c0-1.3-0.1-2.2-0.2-2.5c-0.1-0.3-0.4-0.6-0.9-0.9c-0.4-0.3-1-0.4-1.7-0.4h-0.9v-0.7H470v0.7h-0.9c-0.8,0-1.4,0.1-1.8,0.4
		c-0.3,0.2-0.6,0.5-0.8,0.9c-0.1,0.3-0.2,1.1-0.2,2.4v17.3c0,1.3,0.1,2.2,0.2,2.5c0.1,0.3,0.4,0.6,0.9,0.9c0.4,0.3,1,0.4,1.7,0.4
		H470z"/>
	<path d="M499.2,140.8v0.7c-1,0.2-1.8,0.7-2.5,1.5c-0.5,0.6-1.3,2.2-2.4,4.6l-9,20.1h-0.6l-9-20.9c-1.1-2.5-1.8-4-2.2-4.4
		c-0.4-0.4-1.1-0.7-2.1-0.8v-0.7h12.6v0.7h-0.4c-1.1,0-1.9,0.1-2.3,0.4c-0.3,0.2-0.4,0.5-0.4,0.9c0,0.2,0.1,0.5,0.2,0.8
		c0.1,0.3,0.5,1.2,1,2.6l5.6,13.1l5.2-11.7c0.6-1.4,1-2.4,1.1-2.8c0.1-0.5,0.2-0.9,0.2-1.2c0-0.4-0.1-0.7-0.3-1
		c-0.2-0.3-0.5-0.5-0.9-0.7c-0.6-0.2-1.3-0.3-2.2-0.3v-0.7H499.2z"/>
	<path d="M510.6,142.3V153h0.5c1.7,0,2.9-0.5,3.6-1.6c0.7-1,1.2-2.6,1.4-4.6h0.7v13.8h-0.7c-0.2-1.5-0.5-2.7-1-3.7s-1.1-1.6-1.7-1.9
		c-0.7-0.3-1.6-0.5-2.9-0.5v7.4c0,1.4,0.1,2.3,0.2,2.7c0.1,0.3,0.4,0.6,0.7,0.8s0.9,0.3,1.6,0.3h1.6c2.4,0,4.4-0.6,5.9-1.7
		c1.5-1.1,2.5-2.9,3.2-5.2h0.7l-1.2,8.4h-22.6v-0.7h0.9c0.8,0,1.4-0.1,1.8-0.4c0.3-0.2,0.6-0.5,0.8-0.9c0.1-0.3,0.2-1.1,0.2-2.4
		v-17.3c0-1.2,0-1.9-0.1-2.2c-0.1-0.5-0.4-0.8-0.7-1c-0.5-0.4-1.2-0.5-2-0.5h-0.9v-0.7h21.9v7.8h-0.7c-0.4-1.9-0.9-3.3-1.6-4.1
		c-0.7-0.8-1.6-1.4-2.9-1.8c-0.7-0.2-2.1-0.3-4.1-0.3H510.6z"/>
	<path d="M536.9,155.1v7.4c0,1.4,0.1,2.3,0.3,2.7c0.2,0.4,0.5,0.7,0.9,0.9c0.4,0.2,1.3,0.3,2.5,0.3v0.7h-13.4v-0.7
		c1.2,0,2-0.1,2.5-0.3c0.4-0.2,0.7-0.5,0.9-0.9c0.2-0.4,0.3-1.3,0.3-2.7v-17.1c0-1.4-0.1-2.3-0.3-2.7c-0.2-0.4-0.5-0.7-0.9-0.9
		c-0.4-0.2-1.3-0.3-2.5-0.3v-0.7h12.2c3.2,0,5.5,0.2,7,0.7c1.5,0.4,2.7,1.3,3.6,2.4c0.9,1.2,1.4,2.6,1.4,4.2c0,1.9-0.7,3.5-2.1,4.8
		c-0.9,0.8-2.1,1.4-3.7,1.8l6.3,8.9c0.8,1.2,1.4,1.9,1.8,2.2c0.5,0.4,1.1,0.6,1.8,0.7v0.7H547l-8.4-12H536.9z M536.9,142.2v11.5h1.1
		c1.8,0,3.1-0.2,4-0.5c0.9-0.3,1.6-0.9,2.1-1.8s0.8-2,0.8-3.4c0-2-0.5-3.5-1.4-4.4c-0.9-1-2.4-1.4-4.5-1.4H536.9z"/>
	<path d="M573.7,140.2l0.2,8.8h-0.8c-0.4-2.2-1.3-4-2.8-5.3c-1.5-1.3-3-2-4.7-2c-1.3,0-2.4,0.4-3.1,1.1c-0.8,0.7-1.1,1.5-1.1,2.4
		c0,0.6,0.1,1.1,0.4,1.6c0.4,0.6,1,1.2,1.8,1.8c0.6,0.4,2,1.2,4.2,2.3c3.1,1.5,5.1,2.9,6.2,4.3c1.1,1.3,1.6,2.9,1.6,4.6
		c0,2.2-0.9,4.1-2.6,5.7c-1.7,1.6-3.9,2.4-6.5,2.4c-0.8,0-1.6-0.1-2.3-0.3s-1.7-0.5-2.8-1c-0.6-0.3-1.1-0.4-1.5-0.4
		c-0.3,0-0.7,0.1-1.1,0.4c-0.4,0.3-0.7,0.7-0.9,1.2h-0.7v-9.9h0.7c0.6,2.8,1.7,4.9,3.3,6.4c1.6,1.5,3.4,2.2,5.2,2.2
		c1.4,0,2.6-0.4,3.4-1.2c0.9-0.8,1.3-1.7,1.3-2.8c0-0.6-0.2-1.2-0.5-1.8c-0.3-0.6-0.8-1.1-1.5-1.7c-0.7-0.5-1.9-1.2-3.6-2
		c-2.4-1.2-4.1-2.2-5.1-3c-1-0.8-1.8-1.8-2.4-2.8c-0.6-1-0.8-2.1-0.8-3.4c0-2.1,0.8-3.9,2.3-5.4s3.5-2.2,5.8-2.2
		c0.9,0,1.7,0.1,2.5,0.3c0.6,0.2,1.3,0.4,2.2,0.9s1.5,0.6,1.8,0.6c0.3,0,0.6-0.1,0.8-0.3s0.4-0.7,0.5-1.5H573.7z"/>
	<path d="M591.7,166.3v0.7H578v-0.7h0.9c0.8,0,1.4-0.1,1.8-0.4c0.3-0.2,0.6-0.5,0.8-0.9c0.1-0.3,0.2-1.1,0.2-2.4v-17.3
		c0-1.3-0.1-2.2-0.2-2.5c-0.1-0.3-0.4-0.6-0.9-0.9c-0.4-0.3-1-0.4-1.7-0.4H578v-0.7h13.7v0.7h-0.9c-0.8,0-1.4,0.1-1.8,0.4
		c-0.3,0.2-0.6,0.5-0.8,0.9c-0.1,0.3-0.2,1.1-0.2,2.4v17.3c0,1.3,0.1,2.2,0.2,2.5c0.1,0.3,0.4,0.6,0.9,0.9c0.4,0.3,1,0.4,1.7,0.4
		H591.7z"/>
	<path d="M617.8,140.8v7.1h-0.7c-0.4-1.6-0.9-2.8-1.4-3.5c-0.5-0.7-1.2-1.3-2.1-1.7c-0.5-0.2-1.3-0.3-2.6-0.3h-2v20.3
		c0,1.3,0.1,2.2,0.2,2.5c0.1,0.3,0.4,0.6,0.9,0.9c0.4,0.3,1,0.4,1.8,0.4h0.9v0.7h-13.7v-0.7h0.9c0.8,0,1.4-0.1,1.8-0.4
		c0.3-0.2,0.6-0.5,0.8-0.9c0.1-0.3,0.2-1.1,0.2-2.4v-20.3h-1.9c-1.8,0-3,0.4-3.8,1.1c-1.1,1-1.8,2.5-2.1,4.5h-0.7v-7.1H617.8z"/>
	<path d="M647.5,140.8v0.7c-0.9,0.1-1.5,0.4-2,0.8c-0.6,0.5-1.7,2-3.1,4.4l-5.7,9.5v6.4c0,1.4,0.1,2.2,0.2,2.5
		c0.1,0.3,0.4,0.6,0.8,0.9c0.4,0.3,1,0.4,1.7,0.4h1.5v0.7h-14.7v-0.7h1.4c0.8,0,1.4-0.1,1.8-0.4c0.3-0.2,0.6-0.5,0.8-0.9
		c0.1-0.3,0.2-1.1,0.2-2.4v-5.3l-6.2-11.3c-1.2-2.2-2.1-3.5-2.6-3.9c-0.5-0.4-1.2-0.6-2-0.6v-0.7h12.6v0.7h-0.6
		c-0.8,0-1.3,0.1-1.6,0.3s-0.5,0.5-0.5,0.7c0,0.5,0.5,1.6,1.5,3.5l4.7,8.7l4.7-7.9c1.2-1.9,1.8-3.2,1.8-3.9c0-0.3-0.2-0.6-0.5-0.9
		c-0.4-0.3-1.2-0.5-2.4-0.6v-0.7H647.5z"/>
</g>
</svg>
