<?xml version="1.0" encoding="utf-8"?>
<!-- Generator: Adobe Illustrator 24.3.0, SVG Export Plug-In . SVG Version: 6.00 Build 0)  -->
<svg version="1.1" id="图层_1" xmlns="http://www.w3.org/2000/svg" xmlns:xlink="http://www.w3.org/1999/xlink" x="0px" y="0px"
	 viewBox="0 0 833.3 809.5" style="enable-background:new 0 0 833.3 809.5;" xml:space="preserve">
<style type="text/css">
	.st0{fill:#FFFFFF;stroke:#025B23;stroke-width:14;}
	.st1{fill:#025B23;}
	.st2{fill:#FFFFFF;}
</style>
<ellipse id="XMLID_1_" class="st0" cx="417.1" cy="404.9" rx="405.6" ry="395.9"/>
<path d="M88.3,268.8"/>
<g>
	<path class="st1" d="M71.3,461.7l-14,0.5l-5-34.9l1.1-0.2l0.2,1.3c0.2,1.1,0.5,2,1,2.7c0.3,0.5,0.9,0.8,1.6,1
		c0.5,0.1,1.7,0.1,3.7-0.2l25.9-3.7c2-0.3,3.3-0.6,3.7-0.9c0.5-0.3,0.9-0.8,1.1-1.5c0.3-0.7,0.3-1.6,0.2-2.7l-0.2-1.3l1.1-0.2l3,21
		l-1.1,0.2l-0.2-1.7c-0.2-1.1-0.5-2-1-2.7c-0.3-0.5-0.9-0.8-1.6-1c-0.5-0.1-1.7-0.1-3.7,0.2L62,441.2c-2,0.3-3.3,0.6-3.8,0.9
		c-0.5,0.3-0.9,0.8-1,1.5c-0.1,0.5,0,1.7,0.2,3.5l0.5,3.3c0.3,2.1,0.9,3.8,1.8,5.1c0.9,1.3,2.3,2.3,4,3.1c1.7,0.8,4.2,1.4,7.4,1.9
		L71.3,461.7z"/>
	<path class="st1" d="M97.3,460.9l5.4,19.8l-1,0.3l-0.3-1c-0.4-1.5-0.8-2.5-1.3-2.9c-0.5-0.5-1-0.7-1.6-0.8c-0.6-0.1-2,0.2-4.2,0.8
		l-18.8,5.1c-3.4,0.9-5.6,1.8-6.6,2.6s-1.7,1.9-2.1,3.3c-0.4,1.4-0.4,3,0.1,4.8c0.6,2.1,1.5,3.7,2.8,4.9c1.3,1.2,2.9,1.9,4.8,2.2
		c1.8,0.3,4.8-0.1,8.9-1.3l15.6-4.3c1.7-0.5,2.9-1,3.5-1.5c0.6-0.6,1-1.2,1.2-1.8c0.2-1,0.1-2.2-0.3-3.8l1-0.3l3.6,13.3l-1,0.3
		l-0.2-0.8c-0.3-1.1-0.8-1.9-1.4-2.5c-0.6-0.6-1.4-0.9-2.4-1c-0.7-0.1-1.8,0.1-3.4,0.5l-14.6,4c-4.5,1.2-7.8,1.8-10,1.8
		s-4.4-1-6.7-2.8c-2.3-1.8-4-4.7-5.1-8.7c-0.9-3.3-1.2-6-0.8-8c0.5-2.8,1.6-5,3.2-6.5s4-2.7,7.2-3.6l18.8-5.1c2.2-0.6,3.5-1.1,4-1.5
		c0.5-0.4,0.8-0.9,0.9-1.6c0.2-0.7,0-1.8-0.5-3.5L97.3,460.9z"/>
	<path class="st1" d="M117.6,521.8c2.7,5.7,3,11.2,0.9,16.4c-2.1,5.2-5.8,8.9-11.2,11.2c-4.6,2-9.3,2.4-14,1.1
		c-6.2-1.6-10.7-5.7-13.5-12.2c-2.8-6.6-2.7-12.6,0.2-18.1c2.3-4.3,5.9-7.5,10.7-9.6c5.4-2.3,10.7-2.4,15.9-0.2
		C111.9,512.5,115.5,516.3,117.6,521.8z M116,522.8c-1.4-3.3-4.2-5.2-8.4-5.4c-3.4-0.2-7.7,0.8-13,3c-6.2,2.7-10.4,5.7-12.4,9.2
		c-1.4,2.4-1.6,5-0.4,7.7c0.8,1.9,1.9,3.2,3.3,4.1c1.8,1.1,4.2,1.5,7.1,1.3c2.9-0.2,6.4-1.2,10.4-2.9c4.8-2.1,8.3-4,10.3-6
		c2-1.9,3.2-3.8,3.6-5.6C116.9,526.4,116.8,524.6,116,522.8z"/>
	<path class="st1" d="M147.8,579.5l-0.9,0.6c-0.8-1-1.7-1.7-2.5-2c-1.2-0.4-3.9-0.6-8.1-0.5l-16.8,0l-8.3,4.9
		c-1.8,1-2.8,1.8-3.1,2.2s-0.5,1-0.5,1.8c0,0.7,0.3,1.6,0.8,2.5l1.1,1.9l-0.9,0.6l-11.4-19.2l0.9-0.6l1.1,1.8c0.6,1,1.2,1.7,2,2.1
		c0.5,0.3,1.1,0.4,1.8,0.3c0.5-0.1,1.6-0.6,3.3-1.6l6.8-4.1l9.8-16.7c1.9-3.3,3-5.4,3.1-6.4c0.1-1-0.1-2-0.8-3.1l0.9-0.6l9.7,16.4
		l-0.9,0.6l-0.4-0.7c-0.6-1-1.1-1.6-1.7-1.8c-0.5-0.2-0.9-0.2-1.3-0.1c-0.6,0.4-1.7,1.9-3.4,4.7l-7.6,12.9l14,0
		c3.4,0,5.6-0.2,6.4-0.7c0.5-0.3,0.7-0.7,0.7-1.3c0.1-0.8-0.3-2-1.1-3.6l0.9-0.6L147.8,579.5z"/>
	<path class="st1" d="M137.3,612.1l-8.5-11.2l-4.1,1c-1.4,0.3-2.4,0.8-3,1.3c-0.9,0.7-1.3,1.5-1.1,2.6c0.1,0.6,0.7,1.8,1.8,3.5
		l-0.9,0.7l-8-10.5l0.9-0.7c1,1,2.2,1.6,3.5,1.7c1.3,0.1,3.6-0.2,6.8-0.9l33.8-7.9l0.3,0.4l-17.3,31.1c-1.6,3-2.5,5-2.6,6.2
		c-0.1,0.9,0.2,1.9,0.9,2.9l-0.9,0.7l-11.6-15.3l0.9-0.7l0.5,0.6c0.9,1.2,1.8,2,2.5,2.2c0.5,0.2,1,0.1,1.5-0.3
		c0.3-0.2,0.5-0.5,0.8-0.8c0.1-0.1,0.5-0.8,1.2-2L137.3,612.1z M138.4,610l7.3-13l-14.6,3.4L138.4,610z"/>
	<path class="st1" d="M181.1,619.7l-3.8,31.3l12.2-12c1.7-1.7,2.6-3,2.7-4.1c0.1-1.5-0.6-3-2.1-4.5l0.8-0.8l9.2,9.4l-0.8,0.8
		c-1.3-1-2.3-1.7-3-1.8c-0.6-0.2-1.4-0.1-2.1,0.2c-0.8,0.3-1.8,1.1-3.2,2.4l-23.6,23.2l-0.7-0.7l4.7-42.4l-18,17.7
		c-1.6,1.6-2.4,3.1-2.2,4.4s0.7,2.4,1.7,3.4l0.7,0.7l-0.8,0.8l-9.9-10l0.8-0.8c1.5,1.5,2.9,2.3,4.2,2.3c1.2,0,2.6-0.7,4.1-2.2
		l20-19.7l0.2-1.3c0.2-1.3,0.1-2.4-0.1-3c-0.2-0.7-0.7-1.5-1.6-2.4l0.8-0.8L181.1,619.7z"/>
	<path class="st1" d="M233.6,664.2l-8.6,11.1l-0.9-0.7c1.3-3.8,1.5-7.3,0.7-10.5s-2.5-5.7-4.9-7.6c-2.3-1.8-4.8-2.7-7.4-2.6
		c-2.6,0.1-5.1,1.1-7.6,3s-4.7,4-6.6,6.5c-2.3,3-4,5.9-5.1,8.7c-1.1,2.8-1.2,5.4-0.4,7.7s2.2,4.3,4.4,6c0.8,0.6,1.6,1.1,2.5,1.6
		c0.9,0.5,1.9,0.9,3,1.2l5.1-6.5c1-1.2,1.5-2.1,1.6-2.6c0.1-0.5,0-1.1-0.3-1.8c-0.3-0.7-0.8-1.4-1.6-1.9l-0.8-0.6l0.7-0.9l15.3,11.8
		l-0.7,0.9c-1.2-0.8-2.1-1.3-2.8-1.4c-0.6-0.1-1.3,0-2,0.4c-0.4,0.2-1,0.8-1.9,2l-5.1,6.5c-2.7-0.7-5.3-1.6-7.8-2.8
		c-2.5-1.2-4.9-2.7-7.3-4.6c-3-2.3-5.1-4.6-6.5-7c-1.3-2.3-2.2-4.7-2.7-7.2c-0.5-2.5-0.5-4.9-0.1-7.2c0.6-3,1.9-5.8,3.9-8.4
		c3.7-4.7,8.4-7.4,14.3-8.1c5.8-0.7,11.3,0.9,16.3,4.8c1.6,1.2,2.9,2.4,3.9,3.6c0.6,0.7,1.4,1.9,2.5,3.6c1.1,1.8,1.7,2.7,2,3
		c0.4,0.3,1,0.5,1.6,0.5c0.6,0,1.4-0.4,2.4-1L233.6,664.2z"/>
	<path class="st1" d="M262.9,682.8l6,30.9l7.9-15.2c1.1-2.1,1.5-3.7,1.3-4.8c-0.3-1.4-1.5-2.6-3.4-3.6l0.5-1l11.6,6l-0.5,1
		c-1.6-0.6-2.7-0.9-3.4-0.8c-0.7,0-1.3,0.3-2,0.9s-1.4,1.6-2.3,3.3l-15.2,29.4l-0.9-0.5l-8.6-41.7l-11.6,22.4
		c-1.1,2-1.3,3.6-0.7,4.8c0.6,1.2,1.4,2.1,2.6,2.7l0.8,0.4l-0.5,1l-12.5-6.5l0.5-1c2,1,3.5,1.3,4.7,0.9c1.2-0.4,2.2-1.5,3.2-3.4
		l12.9-24.9l-0.3-1.3c-0.3-1.3-0.6-2.3-1-2.9c-0.4-0.6-1.2-1.2-2.2-1.8l0.5-1L262.9,682.8z"/>
	<path class="st1" d="M309.3,702.9c6,1.9,10.3,5.4,12.7,10.4c2.4,5,2.6,10.3,0.6,15.9c-1.7,4.7-4.6,8.4-8.6,11
		c-5.4,3.5-11.4,4-18.1,1.6c-6.7-2.4-11.1-6.5-13.2-12.4c-1.6-4.6-1.6-9.4,0.2-14.4c2-5.6,5.5-9.5,10.6-11.9
		C298.6,700.8,303.8,700.7,309.3,702.9z M309,704.8c-3.4-1.2-6.6-0.4-9.7,2.5c-2.5,2.4-4.7,6.2-6.6,11.6c-2.3,6.4-2.8,11.5-1.7,15.4
		c0.8,2.7,2.6,4.5,5.4,5.5c1.9,0.7,3.6,0.8,5.2,0.3c2-0.6,4-2,5.8-4.3c1.8-2.3,3.5-5.5,5-9.6c1.8-4.9,2.6-8.8,2.6-11.6
		c0-2.8-0.6-4.9-1.7-6.5C312.3,706.5,310.8,705.4,309,704.8z"/>
	<path class="st1" d="M341.7,735.4l-2.2,10.9c-0.4,2.1-0.6,3.5-0.4,4.1c0.1,0.6,0.5,1.1,1.1,1.6c0.6,0.5,1.8,0.9,3.5,1.2l-0.2,1.1
		l-19.9-4.1l0.2-1.1c1.8,0.4,3.1,0.5,3.8,0.3c0.7-0.2,1.2-0.5,1.6-1s0.8-1.8,1.2-3.9l5.2-25.3c0.4-2.1,0.6-3.5,0.4-4.1
		c-0.1-0.6-0.5-1.1-1.1-1.6c-0.6-0.5-1.8-0.9-3.5-1.2l0.2-1.1l18.1,3.7c4.7,1,8.1,2,10.1,3.1c2,1.1,3.6,2.7,4.6,4.7s1.3,4.2,0.8,6.6
		c-0.6,2.9-2.1,5-4.6,6.5c-1.6,0.9-3.6,1.4-6.1,1.5l6.6,15.1c0.9,2,1.5,3.2,2,3.7c0.7,0.8,1.5,1.3,2.5,1.5l-0.2,1.1l-12.3-2.5
		l-8.9-20.3L341.7,735.4z M345.6,716.3l-3.5,17l1.6,0.3c2.7,0.5,4.7,0.7,6.1,0.5s2.6-0.9,3.7-2c1-1.1,1.7-2.7,2.2-4.7
		c0.6-3,0.4-5.3-0.7-7c-1.1-1.7-3.2-2.9-6.3-3.5L345.6,716.3z"/>
	<path class="st1" d="M399.1,747.6l12-25.6l16.2,0.8l-0.1,1.1l-1.3-0.1c-1.2-0.1-2.1,0.1-2.8,0.5c-0.5,0.2-0.9,0.7-1.2,1.3
		c-0.2,0.5-0.4,1.7-0.5,3.6l-1.2,26.2c-0.1,2,0,3.3,0.1,3.8c0.2,0.5,0.6,1,1.3,1.4c0.6,0.4,1.5,0.6,2.6,0.7l1.3,0.1l-0.1,1.1
		l-20.7-1l0.1-1.1l1.3,0.1c1.2,0.1,2.1-0.1,2.8-0.5c0.5-0.2,0.9-0.7,1.2-1.3c0.2-0.5,0.4-1.7,0.5-3.7l1.4-29.4L395,761l-0.7,0
		l-13.7-36.7l-1.3,27.9c-0.1,2-0.1,3.2,0,3.6c0.2,1,0.7,1.8,1.5,2.5c0.8,0.7,2.1,1,4,1.1l-0.1,1.1l-13.6-0.6l0.1-1.1l0.4,0
		c0.9,0.1,1.7,0,2.5-0.3c0.8-0.3,1.4-0.6,1.8-1.1c0.4-0.5,0.8-1.2,1-2.1c0-0.2,0.1-1.2,0.2-3l1.2-25.1c0.1-2,0-3.3-0.1-3.8
		c-0.2-0.5-0.6-1-1.3-1.4c-0.6-0.4-1.5-0.6-2.6-0.7l-1.3-0.1l0.1-1.1l16.2,0.8L399.1,747.6z"/>
	<path class="st1" d="M455,747.9l-14,1.5l-1.2,4c-0.4,1.3-0.6,2.4-0.5,3.3c0.1,1.1,0.7,1.9,1.6,2.3c0.6,0.3,1.9,0.3,3.9,0.3l0.1,1.1
		l-13.1,1.4l-0.1-1.1c1.4-0.4,2.5-1.1,3.3-2.1c0.8-1.1,1.7-3.2,2.7-6.3l10.7-33l0.6-0.1l17.7,30.9c1.7,2.9,3,4.7,4,5.4
		c0.7,0.5,1.7,0.8,2.9,0.7l0.1,1.1l-19.1,2.1l-0.1-1.1l0.8-0.1c1.5-0.2,2.6-0.5,3.2-1c0.4-0.4,0.6-0.8,0.5-1.4
		c0-0.3-0.1-0.7-0.3-1.1c-0.1-0.2-0.4-0.9-1.1-2.1L455,747.9z M453.8,745.8l-7.4-13l-4.6,14.3L453.8,745.8z"/>
	<path class="st1" d="M512.4,733.8l1.8,13.9L480,756l-0.3-1.1l1.3-0.3c1.1-0.3,2-0.7,2.6-1.3c0.4-0.4,0.7-0.9,0.8-1.6
		c0.1-0.5-0.1-1.7-0.6-3.7l-6.1-25.4c-0.5-2-0.9-3.2-1.2-3.6c-0.3-0.4-0.9-0.8-1.6-1c-0.7-0.2-1.6-0.2-2.7,0.1l-1.3,0.3l-0.3-1.1
		l20.6-5l0.3,1.1l-1.7,0.4c-1.1,0.3-2,0.7-2.6,1.3c-0.4,0.4-0.7,0.9-0.8,1.6c-0.1,0.5,0.1,1.7,0.6,3.7l6,24.6c0.5,2,0.9,3.2,1.3,3.7
		c0.4,0.5,0.9,0.8,1.6,0.9c0.5,0.1,1.7-0.1,3.5-0.6l3.2-0.8c2.1-0.5,3.7-1.3,4.9-2.3c1.2-1.1,2.1-2.5,2.7-4.3c0.6-1.8,1-4.3,1.2-7.6
		L512.4,733.8z"/>
	<path class="st1" d="M520.7,704.2l18.9-8.1l0.4,1l-0.9,0.4c-1.4,0.6-2.3,1.2-2.7,1.7c-0.4,0.5-0.6,1.1-0.6,1.7c0,0.6,0.4,2,1.3,4
		l7.7,17.9c1.4,3.3,2.6,5.3,3.5,6.2c0.9,0.8,2.1,1.4,3.6,1.6s3,0,4.7-0.8c2-0.8,3.5-2,4.5-3.5s1.5-3.2,1.6-5c0-1.9-0.8-4.7-2.5-8.6
		l-6.4-14.9c-0.7-1.6-1.4-2.7-2-3.3c-0.6-0.6-1.3-0.9-1.9-0.9c-1-0.1-2.2,0.2-3.7,0.8l-0.4-1l12.6-5.4l0.4,1l-0.8,0.3
		c-1,0.4-1.8,1-2.3,1.7c-0.5,0.7-0.7,1.5-0.7,2.5c0,0.7,0.3,1.8,1,3.2l5.9,13.9c1.8,4.3,2.9,7.5,3.1,9.7c0.2,2.1-0.4,4.5-1.9,7
		c-1.5,2.5-4.2,4.6-7.9,6.2c-3.2,1.4-5.8,2-7.9,1.9c-2.8-0.1-5.1-0.9-6.9-2.3c-1.7-1.4-3.3-3.6-4.6-6.6l-7.7-17.9
		c-0.9-2.1-1.6-3.4-2-3.8c-0.5-0.4-1-0.6-1.7-0.7s-1.8,0.3-3.4,0.9L520.7,704.2z"/>
	<path class="st1" d="M571.4,680.4l29.4,11.2l-8.7-14.7c-1.2-2-2.3-3.3-3.4-3.6c-1.4-0.5-3-0.2-4.9,1l-0.6-0.9l11.3-6.7l0.6,0.9
		c-1.3,1-2.2,1.9-2.5,2.4c-0.3,0.6-0.4,1.3-0.3,2.1c0.1,0.8,0.7,2,1.6,3.7l16.9,28.4l-0.9,0.5l-40-14.7l12.9,21.7
		c1.2,2,2.4,3,3.7,3.2c1.3,0.2,2.5-0.1,3.7-0.8l0.8-0.5l0.6,0.9l-12.1,7.2l-0.6-0.9c1.9-1.1,3-2.3,3.2-3.5s-0.1-2.7-1.2-4.5
		l-14.3-24.1l-1.3-0.5c-1.3-0.5-2.3-0.7-3-0.7c-0.7,0-1.6,0.4-2.7,0.9l-0.6-0.9L571.4,680.4z"/>
	<path class="st1" d="M635.9,683.7l0.6,0.9l-16.7,12.3l-0.6-0.9l1.1-0.8c0.9-0.7,1.6-1.4,1.9-2.1c0.2-0.5,0.3-1.1,0.1-1.8
		c-0.1-0.5-0.8-1.6-1.9-3.2l-15.5-21c-1.2-1.6-2-2.6-2.5-2.9c-0.5-0.3-1.1-0.4-1.8-0.3c-0.8,0.1-1.6,0.5-2.5,1.1l-1.1,0.8l-0.6-0.9
		l16.7-12.3l0.6,0.9l-1.1,0.8c-0.9,0.7-1.6,1.4-1.9,2.1c-0.2,0.5-0.3,1.1-0.1,1.8c0.1,0.5,0.8,1.6,1.9,3.2l15.5,21
		c1.2,1.6,2.1,2.6,2.5,2.9c0.5,0.3,1.1,0.4,1.9,0.3c0.8-0.1,1.6-0.5,2.5-1.1L635.9,683.7z"/>
	<path class="st1" d="M645.8,623.7l0.7,0.8c-0.9,1.1-1.4,2.6-1.3,4.3c0,1.3,0.7,3.8,1.9,7.6l10.2,31.7l-0.7,0.6l-31.3-14.3
		c-3.8-1.7-6.1-2.6-6.9-2.8s-1.9,0.3-3.2,1.2l-0.7-0.8l14.1-12.8l0.7,0.8l-0.5,0.4c-1.3,1.2-2,2.1-2.2,2.8c-0.1,0.5,0,1,0.4,1.4
		c0.2,0.3,0.6,0.5,1,0.8c0.4,0.2,1.7,0.8,3.8,1.8l19.6,9l-6-18.3c-0.7-2.2-1.3-3.7-1.6-4.3c-0.3-0.7-0.7-1.2-1-1.6
		c-0.4-0.4-0.9-0.7-1.4-0.8c-0.5-0.1-1.1-0.1-1.7,0.2c-0.8,0.3-1.8,0.9-2.8,1.9l-0.7-0.8L645.8,623.7z"/>
	<path class="st1" d="M658.1,612.8l12.3,10.6l0.5-0.6c1.6-1.9,2.2-3.8,1.8-5.7s-1.8-4-3.9-6.2l0.7-0.8l15.8,13.6l-0.7,0.8
		c-1.9-1.3-3.6-2.1-5.2-2.5c-1.6-0.4-2.9-0.3-3.9,0.1s-2.2,1.4-3.4,2.8l8.5,7.3c1.7,1.4,2.7,2.2,3.2,2.4c0.5,0.2,1,0.2,1.6,0
		c0.6-0.2,1.2-0.7,2-1.6l1.5-1.8c2.4-2.8,3.7-5.6,3.9-8.4c0.2-2.8-0.8-5.7-2.8-8.8l0.7-0.8l8.4,9.6l-22.4,26l-0.8-0.7l0.9-1
		c0.8-0.9,1.2-1.7,1.4-2.5c0.1-0.6,0-1.2-0.3-1.8c-0.2-0.5-1.1-1.4-2.6-2.7L655.3,623c-1.4-1.2-2.2-1.9-2.6-2
		c-0.6-0.3-1.3-0.4-1.9-0.2c-0.9,0.2-1.8,0.8-2.6,1.8l-0.9,1l-0.8-0.7l21.7-25.2l8.9,7.7l-0.7,0.8c-2.5-1.4-4.6-2.2-6.2-2.2
		s-3.3,0.5-4.9,1.5c-1,0.6-2.5,2-4.4,4.3L658.1,612.8z"/>
	<path class="st1" d="M698.3,592.7l9.3,6.2c1.8,1.2,3,1.8,3.6,1.9s1.2-0.1,1.9-0.4c0.6-0.4,1.5-1.3,2.5-2.8l0.9,0.6L705.2,615
		l-0.9-0.6c1-1.5,1.6-2.7,1.6-3.4c0.1-0.7,0-1.4-0.3-1.9c-0.3-0.5-1.4-1.4-3.1-2.6L681,592.3c-1.8-1.2-3-1.8-3.6-1.9
		s-1.2,0.1-1.9,0.4c-0.6,0.4-1.5,1.3-2.5,2.8l-0.9-0.6l10.2-15.4c2.7-4,4.9-6.7,6.7-8.2c1.8-1.5,3.8-2.3,6.1-2.5
		c2.3-0.2,4.4,0.4,6.4,1.7c2.4,1.6,3.9,3.8,4.3,6.7c0.3,1.8,0,3.9-0.9,6.2l16.5-0.5c2.1-0.1,3.5-0.2,4.2-0.4
		c0.9-0.3,1.7-0.9,2.4-1.8l0.9,0.6l-6.9,10.4l-22.2,0.6L698.3,592.7z M682.1,581.9l14.5,9.6l0.9-1.4c1.5-2.3,2.4-4.1,2.8-5.5
		c0.3-1.4,0.2-2.8-0.5-4.1c-0.7-1.4-1.8-2.6-3.6-3.8c-2.5-1.7-4.8-2.3-6.8-2c-2,0.4-3.9,1.9-5.6,4.5L682.1,581.9z"/>
	<path class="st1" d="M707,532.7l11.9,5.7l-0.5,1.1c-3.2-1-6.2-1-9,0.1c-2.8,1.1-4.8,2.7-6,5c-0.9,1.8-1.2,3.4-0.7,4.9
		c0.4,1.5,1.2,2.6,2.5,3.2c0.8,0.4,1.6,0.6,2.4,0.5c1.1-0.1,2.3-0.5,3.7-1.2c1-0.5,3-1.9,5.9-4.1c4.2-3.1,7.5-4.9,10-5.4
		c2.5-0.5,5-0.2,7.3,1c3,1.5,4.9,4,5.9,7.4c1,3.4,0.5,6.9-1.3,10.4c-0.6,1.1-1.2,2.1-2,3c-0.7,0.9-1.8,1.9-3.2,3.1
		c-0.8,0.7-1.3,1.3-1.6,1.8c-0.2,0.5-0.3,1-0.2,1.7c0.1,0.7,0.4,1.4,1,2l-0.5,1l-13.4-6.8l0.5-1c4.1,1.2,7.8,1.1,10.9,0
		s5.3-3,6.6-5.5c1-1.9,1.3-3.8,0.8-5.5c-0.5-1.7-1.4-2.9-2.8-3.6c-0.8-0.4-1.8-0.6-2.8-0.6c-1,0-2.1,0.3-3.3,0.9
		c-1.2,0.5-2.9,1.7-5.2,3.4c-3.2,2.4-5.8,4-7.6,4.9c-1.8,0.8-3.6,1.3-5.4,1.3s-3.5-0.3-5.1-1.2c-2.8-1.4-4.7-3.7-5.6-6.8
		c-0.9-3.1-0.6-6.2,1-9.3c0.6-1.1,1.3-2.2,2.1-3.1c0.6-0.7,1.5-1.5,2.7-2.4c1.2-0.9,1.9-1.6,2.1-2c0.2-0.5,0.3-0.9,0.1-1.3
		c-0.1-0.4-0.7-1-1.6-1.8L707,532.7z"/>
	<path class="st1" d="M754,522.7l1,0.4l-7.8,19.2l-1-0.4l0.5-1.2c0.4-1.1,0.6-2,0.5-2.8c-0.1-0.6-0.3-1.1-0.9-1.6
		c-0.4-0.4-1.5-0.9-3.3-1.7l-24.2-9.9c-1.9-0.8-3.1-1.1-3.6-1.1c-0.6,0-1.1,0.2-1.7,0.7c-0.6,0.5-1.1,1.2-1.5,2.2l-0.5,1.2l-1-0.4
		l7.8-19.2l1,0.4l-0.5,1.2c-0.4,1.1-0.6,2-0.5,2.8c0.1,0.6,0.3,1.1,0.8,1.6c0.4,0.4,1.5,0.9,3.3,1.7l24.2,9.9
		c1.9,0.8,3.1,1.1,3.7,1.1c0.6,0,1.1-0.3,1.7-0.7c0.6-0.5,1.1-1.2,1.5-2.2L754,522.7z"/>
	<path class="st1" d="M729.9,471l10.3,3.1l-0.3,1c-2.6-0.1-4.5,0-5.7,0.5c-1.3,0.4-2.4,1.2-3.4,2.3c-0.5,0.6-1.1,1.8-1.6,3.6
		l-0.8,2.8l29.4,8.8c1.9,0.6,3.2,0.8,3.7,0.8c0.6-0.1,1.1-0.4,1.7-0.9c0.6-0.5,1-1.3,1.3-2.4l0.4-1.3l1,0.3l-6,19.9l-1-0.3l0.4-1.3
		c0.3-1.1,0.4-2.1,0.2-2.8c-0.1-0.6-0.5-1.1-1-1.6c-0.4-0.3-1.5-0.8-3.4-1.4l-29.4-8.8l-0.8,2.8c-0.8,2.6-0.8,4.6,0,6.1
		c1,2.1,2.9,3.8,5.6,5l-0.3,1.1l-10.3-3.1L729.9,471z"/>
	<path class="st1" d="M737.4,427.6l1.1,0.2c0,1.3,0.2,2.4,0.6,3.2c0.6,1.1,2.6,3,5.9,5.7l12.8,10.9l9.5,1.6c2,0.3,3.3,0.4,3.8,0.3
		c0.5-0.1,1-0.5,1.5-1c0.5-0.6,0.8-1.4,1-2.4l0.4-2.2l1.1,0.2l-3.7,22l-1.1-0.2l0.3-2.1c0.2-1.2,0.1-2.1-0.2-2.8
		c-0.2-0.5-0.6-1-1.2-1.4c-0.4-0.3-1.6-0.6-3.6-0.9l-7.9-1.3l-18.3,6.4c-3.6,1.3-5.8,2.2-6.5,2.9c-0.7,0.7-1.2,1.6-1.4,2.9l-1.1-0.2
		l3.1-18.8l1.1,0.2l-0.1,0.8c-0.2,1.1-0.2,2,0.1,2.5c0.3,0.5,0.6,0.8,0.9,0.9c0.7,0.1,2.6-0.4,5.6-1.4l14.2-4.9l-10.6-9
		c-2.6-2.2-4.4-3.4-5.3-3.6c-0.5-0.1-1,0.1-1.4,0.5c-0.6,0.6-1.1,1.7-1.5,3.5l-1.1-0.2L737.4,427.6z"/>
</g>
<path class="st1" d="M505.1,597.5c-25,1.1-49.1-5.5-71.7-18.9c-35.3-20.9-71-41-112-49.4c-35-7.1-68.8-1.2-102.4,8
	c-11.4,3.1-22.9,6.4-33.9,10.7c-7.6,3-11.7,1.2-15.3-5.6c-17-32-28.7-65.7-32.5-101.8c-7.5-70.5,8.9-135.3,51.4-192.5
	c50.2-67.6,117.9-105.1,202.3-112.4c78-6.8,147.1,15.7,206.2,66c54.5,46.4,85.8,105.8,94.4,177.1c5.6,46.6-2.5,90.7-18.6,134.4
	C662.3,542,640,557.3,615.2,570C581.3,587.4,545.2,598.5,505.1,597.5z"/>
<path class="st1" d="M554.9,645.6c-79,49.1-193.4,52.3-276.9,1.6c13.3-31.1,34.5-53.2,68.3-61.1c34.4-8.1,66.7,0.7,96.3,17.3
	C477.2,622.7,512.4,639.2,554.9,645.6z"/>
<path class="st2" d="M296.9,216.9c2.3-1.9,5.3-1.1,10.5-0.7c6.2,0.5,12.4-0.7,18.6-1.1c48.7-2.6,73-3.9,93-4.7
	c47.9-1.8,108.7-2.6,114.9,10.9c0.4,1,1.9,4.1,0.5,6.2c-2.1,3.3-9.6,1.6-18.3,0c-20-3.6-37.7-4.9-48.3-5.1c-7.1-0.1-7.4,0.3-14.3,0
	c-9.5-0.4-13-1.5-17.3,0.5c-4.8,2.2-7.2,6.5-8.3,8.5c-3.9,6.9-1.9,11.3-2.2,26.8c-0.3,15.9-2.4,18.1,0.3,24
	c3.2,7.1,9.5,10.6,14,13.1c16.3,8.9,23.5,2.1,40.4,8.1c1.2,0.4,25.3,9.3,33.2,30.7c2,5.3,2,9,2.3,20.8c1.3,50.6,1.7,15.7,1.6,47.7
	c-0.1,88.3-2.2,85.4,0.2,93.5c1.3,4.5,4.8,15.2,0.7,18.4c-2.7,2.1-8.7,0.9-11.3-2.4c-2.1-2.8-1.6-6.4-1.5-7.6
	c1.8-13.5-1.2-27.4,0-41c1.2-14,0.2-28,0.3-42.1c0.1-15,0.2-27.6-0.3-44c-0.7-26.3-1.9-32.5-5.8-39.4c-6.5-11.5-16.1-17.1-20.2-19.4
	c-13.7-7.8-37.5-13.8-47.7-3.2c-2.3,2.4-3.6,5.2-4.3,31.1c-0.7,25-0.3,43-0.3,43c0.2,12.1-1.8,24.2-0.7,36.3
	c0.5,5.6,1.3,11.2-2.2,14.3c-3.9,3.5-12.3,2.6-15.9-1.8c-3.2-3.8-2-9.3-1.3-13.6c2-12.2-0.5-24.6,0-36.9c0.7-16-0.2-11.3,0.3-42.6
	c0.7-47,2.8-52.1-3-58.1c-10.8-11.3-32.6-7.8-46.1-5.7c-14.1,2.3-19.1,6.7-20.8,8.2c-8.3,7.9-9.1,19.5-9.4,25.6
	c-2.3,42.6,1.4,86.4,1.3,116.5c0,14.4-0.9,22.9-0.3,38.3c0.3,6.8-0.7,13.7-0.3,20.5c0.4,6.3,1.1,10-1.3,12.5
	c-2.7,2.8-8.4,3.2-11.3,0.8c-4-3.3-2.4-11.2-1.9-14.2c3.5-19.2-0.4-39,0.8-58.5c0.2-3.2,0,0.1-0.8-64.2c-0.1-9.2-0.3-27.7,1.9-51.6
	c1.3-14.6,2-22,4-25.1c12.6-19.2,54.2-24.2,68.8-25.9c5-0.6,11.2-1.1,15.2-5.9c6.7-7.8,5.4-24.8-3.3-32.7c-3.3-3-6.9-3.9-49.7-1
	c-21.6,1.5-32.4,2.2-34.5,2.7c-10.2,2.4-17.4,5.5-20.8,2C293.1,226.8,293.6,219.7,296.9,216.9z"/>
<circle class="st2" cx="341.3" cy="223" r="20.3"/>
<circle class="st2" cx="486.6" cy="222.3" r="20.3"/>
<circle class="st2" cx="511.4" cy="356.8" r="20.3"/>
<circle class="st2" cx="511.4" cy="399.9" r="20.3"/>
<circle class="st2" cx="511.1" cy="440.5" r="20.3"/>
<circle class="st2" cx="511.1" cy="484" r="20.3"/>
<circle class="st2" cx="321.6" cy="336.3" r="20.3"/>
<circle class="st2" cx="320.5" cy="401" r="20.3"/>
<circle class="st2" cx="322.3" cy="465.3" r="20.3"/>
<circle class="st2" cx="415.9" cy="476.5" r="20.3"/>
<g>
	<path class="st2" d="M370.1,654.9h-7.4v-19.1c-2.7,1.7-5.9,3-9.5,3.8V635c1.9-0.4,4-1.3,6.3-2.5c2.3-1.2,3.8-2.6,4.6-4.2h6V654.9z"
		/>
	<path class="st2" d="M382.2,648.8l7.1-0.5c0.2,1,0.6,1.7,1.4,2.2c0.7,0.5,1.7,0.7,2.9,0.7c1.5,0,2.8-0.5,3.9-1.4c1.1-1,1.7-3,2-6
		c-1.9,1.5-4.2,2.2-6.9,2.2c-3,0-5.6-0.8-7.8-2.4c-2.2-1.6-3.3-3.7-3.3-6.3c0-2.7,1.2-4.9,3.5-6.5c2.3-1.6,5.3-2.5,8.8-2.5
		c3.9,0,7.1,1,9.6,3.1c2.5,2.1,3.7,5.5,3.7,10.3c0,4.8-1.3,8.3-3.9,10.5s-6,3.2-10.2,3.2c-3,0-5.4-0.6-7.3-1.7
		C383.9,652.6,382.7,650.9,382.2,648.8z M398.8,637.7c0-1.6-0.5-2.9-1.6-3.8s-2.4-1.4-3.8-1.4c-1.4,0-2.5,0.4-3.4,1.1
		c-0.9,0.7-1.3,2-1.3,3.6c0,1.7,0.5,3,1.5,3.8c1,0.8,2.2,1.2,3.7,1.2c1.4,0,2.6-0.4,3.6-1.2C398.3,640.3,398.8,639.2,398.8,637.7z"
		/>
	<path class="st2" d="M431.6,654.9h-7.4v-19.1c-2.7,1.7-5.9,3-9.5,3.8V635c1.9-0.4,4-1.3,6.3-2.5c2.3-1.2,3.8-2.6,4.6-4.2h6V654.9z"
		/>
	<path class="st2" d="M468.5,634.9l-7.1,0.5c-0.2-1-0.6-1.8-1.4-2.2c-0.7-0.5-1.7-0.7-2.9-0.7c-1.6,0-2.9,0.5-3.9,1.4
		c-1.1,1-1.8,3-2,6c1.8-1.5,4.1-2.2,6.8-2.2c3.1,0,5.7,0.8,7.9,2.4s3.3,3.7,3.3,6.3c0,2.7-1.2,4.9-3.5,6.5c-2.3,1.6-5.3,2.5-8.9,2.5
		c-3.9,0-7.1-1-9.6-3.1c-2.5-2.1-3.7-5.5-3.7-10.2c0-4.9,1.3-8.4,3.9-10.5s6-3.2,10.1-3.2c2.9,0,5.3,0.6,7.2,1.7
		S468,632.7,468.5,634.9z M451.8,646c0,1.7,0.5,2.9,1.6,3.8s2.4,1.3,3.8,1.3c1.4,0,2.5-0.4,3.4-1.1c0.9-0.7,1.4-1.9,1.4-3.6
		c0-1.7-0.5-3-1.5-3.8c-1-0.8-2.2-1.2-3.7-1.2c-1.4,0-2.6,0.4-3.6,1.1C452.3,643.3,451.8,644.5,451.8,646z"/>
</g>
<g>
	<path class="st1" d="M103.6,257.7c-2.5-5.9-4.7-11.3-7.1-16.7c-0.5-1.2-1.9-3-2.7-3.1c-1.3-0.1-2.7,0.9-3.5,1.9
		c-1.3,1.6-2.1,3.5-3.1,5.3c-1.1-1.5-1.8-3-3-4c-0.7-0.6-2.1-0.5-3.2-0.8c0,0.8-0.2,1.7,0,2.5c1.4,5.8,3,11.5,4.4,17.3
		c0.5,2.4,0.5,4.9,0.8,7.6c3.2-0.2,4.6-2.1,6.5-3.6c1.4-1.1,3.9-1.1,6-1.3c0.5,0,1.6,1,1.9,1.7c2.5,6.8,4.3,13.7,3.8,20.5
		c0,0.8-0.3,1.5-0.6,2.5c-2.6-3.1-4.8-5.8-7-8.4c-0.3,0.2-0.7,0.4-1,0.6c0.5,1.1,1,2.2,1.6,3.2c2.9,5.2,6,10.4,8.8,15.7
		c2.2,4,2.1,4-2.4,3.7c-0.2,0-0.3,0.2-0.7,0.5c4,5.4,9,9.1,15.6,10.3c1.1,0.2,3.1-0.1,3.2-0.7c0.2-1-0.4-2.6-1.2-3.6
		c-3.3-4.2-6.8-8.3-10.3-12.3c-1.9-2.2-3.6-4.2-1.5-6.6c0.5-0.6,0.7-1.6,0.6-2.5c-0.3-3.4,1.6-3.4,4.3-2.2c1.1,0.5,2.3,0.8,3.4,1.2
		c2.9,0.9,5.8,2.1,8.7,2.6c1.5,0.2,3.1-0.8,4.3-1.7c0.6-0.4,0.7-2.3,0.2-2.8c-2.2-2.1-0.8-3.2,0.4-4.4c1.1-1.1,2.4-1.9,3.2-3.1
		c0.6-0.9,0.9-2.3,0.6-3.3c-1.3-3.5-2.8-7-4.6-10.4c-0.6-1.1-2.1-2.4-3.3-2.8c-4.4-1.3-8,0.4-9.5,4c-0.8,1.8-1.6,3.6-2.6,5.3
		c-1.3,2.3-2.8,4.4-4.2,6.7c-1.1-1-1.3-1.8-1.5-2.5c-0.7-3.3-1.3-6.6-2.2-9.9c-0.6-2.2,0.2-2.7,2.1-3.1c9.5-1.9,18-5.8,26-10.4
		c2.2-1.2,3.2-3.3,2.3-6.6C126.2,249.2,115.9,254.9,103.6,257.7z"/>
	<path class="st1" d="M67.7,269.6c0.1,0.1,0.1,0.1,0.2,0.2c-0.2,0.3-0.4,0.6-0.7,0.9c-2.2,3.1-1.7,4.2,2.4,5.9
		c5.8,2.4,10.1,0.9,14.2-2c2-1.4,1.9-3.1,0.3-5.1c-4.9-6.1-8.5-6.4-13.1-2.8C69.8,267.5,68.8,268.6,67.7,269.6z"/>
	<path class="st1" d="M76,288.1c-0.4,1.8-0.6,2.9-0.9,4.1c1.3,0.3,2.6,0.9,3.9,0.9c1.9,0.1,3.7-0.1,5.5-0.3c2.8-0.4,5.3-1.4,6-4.2
		c0.3-1.2-0.3-3.1-1.1-4.1c-0.7-0.8-2.9-1.4-3.8-1C82.2,284.9,79,286.6,76,288.1z"/>
	<path class="st1" d="M103.6,257.7c12.3-2.8,22.6-8.5,33.4-13.7c0.8,3.3-0.2,5.4-2.3,6.6c-8,4.6-16.4,8.5-26,10.4
		c-1.9,0.4-2.7,0.9-2.1,3.1c0.9,3.3,1.5,6.6,2.2,9.9c0.2,0.7,0.4,1.5,1.5,2.5c1.4-2.2,2.9-4.4,4.2-6.7c1-1.7,1.8-3.5,2.6-5.3
		c1.5-3.6,5.1-5.3,9.5-4c1.2,0.4,2.8,1.6,3.3,2.8c1.8,3.4,3.3,6.9,4.6,10.4c0.4,1,0,2.5-0.6,3.3c-0.8,1.2-2.2,2.1-3.2,3.1
		c-1.2,1.2-2.6,2.3-0.4,4.4c0.5,0.5,0.4,2.4-0.2,2.8c-1.2,0.9-2.8,1.9-4.3,1.7c-2.9-0.4-5.8-1.7-8.7-2.6c-1.1-0.4-2.3-0.7-3.4-1.2
		c-2.7-1.1-4.6-1.1-4.3,2.2c0.1,0.9-0.1,1.9-0.6,2.5c-2.1,2.4-0.3,4.4,1.5,6.6c3.5,4.1,7,8.1,10.3,12.3c0.8,1,1.4,2.6,1.2,3.6
		c-0.1,0.6-2.1,0.9-3.2,0.7c-6.6-1.2-11.6-4.9-15.6-10.3c0.4-0.3,0.5-0.5,0.7-0.5c4.5,0.3,4.6,0.3,2.4-3.7
		c-2.9-5.3-5.9-10.4-8.8-15.7c-0.6-1.1-1.1-2.1-1.6-3.2c0.3-0.2,0.7-0.4,1-0.6c2.2,2.6,4.4,5.3,7,8.4c0.2-1,0.5-1.7,0.6-2.5
		c0.4-6.9-1.3-13.7-3.8-20.5c-0.3-0.7-1.4-1.8-1.9-1.7c-2.1,0.2-4.7,0.2-6,1.3c-1.9,1.5-3.3,3.4-6.5,3.6c-0.3-2.7-0.2-5.2-0.8-7.6
		c-1.3-5.8-2.9-11.5-4.4-17.3c-0.2-0.8,0-1.7,0-2.5c1.1,0.2,2.5,0.1,3.2,0.8c1.2,1,1.9,2.5,3,4c1-1.8,1.8-3.7,3.1-5.3
		c0.8-1,2.2-1.9,3.5-1.9c0.8,0,2.1,1.9,2.7,3.1C98.9,246.4,101.1,251.8,103.6,257.7z M122.6,266.6c-0.6,0.8-1.4,1.5-1.7,2.4
		c-1,2.4-1.9,4.9-2.6,7.5c-0.4,1.4-1.1,3.1,1.6,3.9c2.3,0.7,4.9,2.6,6.4-0.5C129.1,274.3,128.8,272.7,122.6,266.6z M92.3,260.1
		c1.8-0.3,3.3-0.4,4.7-0.8c0.7-0.2,1.6-1.3,1.5-1.8c-1.9-4.7-4-9.3-6.4-14.6C87.5,248.3,90.7,253.9,92.3,260.1z"/>
	<path class="st1" d="M67.7,269.6c1.1-1,2.1-2.1,3.3-3c4.6-3.6,8.2-3.2,13.1,2.8c1.6,2,1.7,3.7-0.3,5.1c-4.1,2.9-8.4,4.4-14.2,2
		c-4.1-1.7-4.7-2.8-2.4-5.9c0.2-0.3,0.4-0.6,0.7-0.9C67.8,269.7,67.7,269.7,67.7,269.6z"/>
	<path class="st1" d="M76,288.1c3-1.5,6.2-3.3,9.5-4.6c0.9-0.4,3.1,0.2,3.8,1c0.9,1,1.4,2.9,1.1,4.1c-0.7,2.8-3.3,3.7-6,4.2
		c-1.8,0.3-3.6,0.4-5.5,0.3c-1.3-0.1-2.6-0.6-3.9-0.9C75.4,291,75.6,289.9,76,288.1z"/>
	<path class="st2" d="M122.6,266.6c6.2,6.2,6.5,7.7,3.7,13.3c-1.5,3.1-4.1,1.2-6.4,0.5c-2.6-0.8-2-2.5-1.6-3.9
		c0.8-2.5,1.6-5,2.6-7.5C121.2,268.1,122,267.4,122.6,266.6z"/>
	<path class="st2" d="M92.3,260.1c-1.6-6.2-4.8-11.8-0.2-17.2c2.3,5.3,4.5,9.9,6.4,14.6c0.2,0.5-0.8,1.5-1.5,1.8
		C95.6,259.7,94.1,259.8,92.3,260.1z"/>
</g>
<g>
	<path class="st1" d="M202.3,156c1.3,0.5,3.7,1.9,6.3,2.5c3.1,0.7,4.5-0.7,5-4.1c0.5-3.4,2.2-4.8,5.5-4.4c2.3,0.3,5.1,1.3,6.4-1.6
		c0.8-1.8-0.3-4.3-0.8-6.4c-0.1-0.6-0.8-1-1.2-1.5c-3.9-4-7.8-7.8-11.5-12c-2.9-3.2-5.8-6.5-7.9-10.2c-1.3-2.4-2.8-3.3-5.6-3
		c-3.7,0.4-5.7,2.8-7.2,6c-2,4.5-3.9,8.8-9.2,11.1c-2.8,1.2-2.8,3.8-0.3,5.1c1.5,0.8,3.3,1.1,4.4,2.2
		C191.3,144.8,196.3,149.9,202.3,156z"/>
	<path class="st1" d="M150,162.4c2.7-0.6,5.6-1.5,7.2-4.7c1-2,2.1-2.4,3.6-1.1c2.2,2,4.4,3.8,6.5,5.9c10.8,11.1,21.5,22.4,32.5,33.4
		c0.8,0.9,3,0.4,4.6,0.5c-0.1-1.6,0.4-3.7-0.4-4.7c-3.6-4.2-7.6-8.1-11.4-12c-5.6-5.7-11.2-11.4-16.8-17.1c0.3-0.5,0.7-1.1,1-1.6
		c1.4,0,2.9,0.5,4.2,0c2.1-0.8,4.9-1.9,5.9-3.6c1.4-2.2-0.1-4.1-2.5-5c-2.1-0.8-4-1.9-5.9-3c-5.3-3.3-9.4-7.5-9.4-14.6
		c0-2.7-1.6-3-3.7-2.4c-2.6,0.7-4.6,2.1-5.2,5.2c-0.4,2.6-1.3,5.2-2.4,7.7C155.3,151.1,152.6,156.6,150,162.4"/>
	<path class="st1" d="M202.3,156c-6-6.1-11-11.3-16.1-16.2c-1.1-1.1-3-1.4-4.4-2.2c-2.4-1.3-2.4-3.9,0.3-5.1
		c5.3-2.2,7.2-6.6,9.2-11.1c1.5-3.2,3.4-5.5,7.2-6c2.8-0.3,4.2,0.6,5.6,3c2.1,3.8,5.1,7,7.9,10.2c3.7,4.1,7.7,8,11.5,12
		c0.5,0.5,1.1,0.9,1.2,1.5c0.4,2.1,1.6,4.6,0.8,6.4c-1.3,2.9-4.1,1.8-6.4,1.6c-3.3-0.4-4.9,1-5.5,4.4c-0.5,3.4-1.9,4.8-5,4.1
		C206,157.9,203.6,156.5,202.3,156z M196.6,136.9c1.6-1.4,2.9-2.9,4.4-3.9c1.5-0.9,3.2-1.2,5.3-1.9c-2.1-2.2-3.9-4-5.8-5.8
		c-0.5-0.5-1.3-0.8-1.9-1.3c-1.4-1.3-2.5-0.8-3.8,0.9C190.7,130.3,191,133.2,196.6,136.9z M205.6,137c-2.2,1.3-5.7,1.8-4.4,4.4
		c1.4,2.8,4.5,4.5,7,6.6c0.2,0.2,0.9,0,1.4-0.2c2.4-1.2,4.7-2.4,7.5-3.7c-2.4-2.5-5-5-7.5-7.6c-0.8,1.3-1.7,2.8-2.7,4.4
		c-0.3-0.1-0.5-0.2-0.8-0.2C206,139.6,205.8,138.6,205.6,137z"/>
	<path class="st1" d="M150,162.4c2.6-5.7,5.3-11.3,7.7-16.9c1.1-2.5,1.9-5.2,2.4-7.7c0.5-3.2,2.6-4.5,5.2-5.2
		c2.1-0.6,3.7-0.3,3.7,2.4c0,7.1,4.1,11.3,9.4,14.6c1.9,1.1,3.8,2.3,5.9,3c2.4,0.9,3.8,2.8,2.5,5c-1,1.7-3.8,2.7-5.9,3.6
		c-1.3,0.5-2.8,0-4.2,0c-0.3,0.5-0.7,1.1-1,1.6c5.6,5.7,11.2,11.4,16.8,17.1c3.9,4,7.8,7.8,11.4,12c0.8,1,0.3,3.1,0.4,4.7
		c-1.6-0.2-3.7,0.3-4.6-0.5c-10.9-11-21.6-22.3-32.5-33.4c-2-2.1-4.3-4-6.5-5.9c-1.4-1.3-2.5-0.9-3.6,1.1
		C155.6,160.8,152.7,161.7,150,162.4"/>
	<path class="st1" d="M160.4,150.3c2,0.3,4.1,0.1,5.3,1c2.3,1.6,3.9,4.1,6,5.9c0.9,0.7,2.5,1,3.8,0.8c0.9-0.2,2.5-1.7,2.5-2.5
		c0.1-1.3-0.6-2.8-1.5-3.6c-2.5-2.2-5.4-4-8.1-5.9c-1.8-1.3-3.4-2.7-5.5-4.3C161.9,145.1,161.1,147.8,160.4,150.3z"/>
	<path class="st2" d="M196.6,136.9c-5.6-3.7-5.9-6.7-1.7-12c1.3-1.7,2.4-2.2,3.8-0.9c0.5,0.5,1.3,0.8,1.9,1.3
		c1.8,1.8,3.6,3.7,5.8,5.8c-2,0.7-3.8,1-5.3,1.9C199.4,134,198.2,135.5,196.6,136.9z"/>
	<path class="st2" d="M205.6,137c0.2,1.6,0.3,2.6,0.5,3.6c0.3,0.1,0.5,0.2,0.8,0.2c0.9-1.5,1.9-3.1,2.7-4.4c2.5,2.5,5,5.1,7.5,7.6
		c-2.8,1.4-5.1,2.6-7.5,3.7c-0.4,0.2-1.1,0.4-1.4,0.2c-2.4-2.1-5.6-3.8-7-6.6C199.9,138.8,203.4,138.3,205.6,137z"/>
	<path class="st2" d="M160.4,150.3c0.7-2.5,1.5-5.2,2.5-8.8c2.1,1.6,3.8,3,5.5,4.3c2.7,2,5.6,3.8,8.1,5.9c0.9,0.8,1.5,2.3,1.5,3.6
		c0,0.8-1.6,2.3-2.5,2.5c-1.3,0.3-2.9,0-3.8-0.8c-2.2-1.8-3.8-4.2-6-5.9C164.6,150.4,162.4,150.6,160.4,150.3z"/>
</g>
<g>
	<path class="st1" d="M315.6,50c3.4,3.3,6.7,4.8,10.5,4.7c1.9-0.1,2.5,0.1,1.7,2c-2.1,4.6-4.1,9.3-6.5,13.8c-2.1,4.1-3,8.1-0.4,12.3
		c0.7,1.1,2.1,2,3.4,2.4c0.4,0.1,1.6-1.6,2-2.7c0.8-2.2,1.2-4.5,1.9-7.1c3.3,2.2,5.3,4.4,5.8,8.3c0.9,8.8,2.4,17.6,3.6,26.4
		c0.6,4.4,1.1,8.8,1.9,13.2c0.2,1.3,1.2,2.5,1.9,3.7c0.4-0.1,0.9-0.2,1.3-0.3c0.1-1.6,0.5-3.2,0.3-4.7c-1.2-9.1-2.6-18.2-3.9-27.3
		c-0.4-3.2-0.6-6.4-1-9.6c-0.2-1.9,0.1-3.1,2.3-2.2c0.7,0.3,1.5,0.5,2.2,0.9c2.2,1.2,4,0.8,5.1-1.6c2.3-5.1,4.6-10.2,6.7-15.4
		c0.3-0.7-0.6-2.6-1.5-3.1c-1.1-0.8-2.8-1.3-4.1-1.1c-3.8,0.4-7.6,1.2-11.4,1.7c-0.8,0.1-2.1-0.5-2.3-1c-2.5-6.7-0.1-11.4,6.5-13.4
		c0.5-0.1,1.1,0,1.4-0.3c0.5-0.5,1.2-1.6,1-1.8c-1.1-1.4-2.5-3.8-3.6-3.7c-3.6,0.2-7.5,0.7-10.6,2.4c-3.2,1.8-6.3,2.9-9.8,2.9
		C318.6,49.1,317.5,49.6,315.6,50z"/>
	<path class="st1" d="M308.3,45.6c0.3,4.7,0.6,8.4,0.6,12.1c0.1,10.3,0.5,20.7,0.1,31c-0.2,5.4-1.9,10.7-2.5,16.1
		c-0.2,1.2,0.8,3.4,1.7,3.8c1.8,0.8,3.7-0.1,4.5-2.1c0.5-1.4,0.9-2.9,1-4.4c0.4-7,1-14.1,0.9-21.1c-0.3-12.9-1-25.9-1.8-38.8
		c-0.1-1.5-1.7-3.2-3-4.3c-0.5-0.5-2.2,0.2-3.1,0.7c-0.3,0.2,0,1.7,0.2,2.6C307.4,42.9,308,44.7,308.3,45.6z"/>
	<path class="st1" d="M299.2,59.3c-0.6,1.4-1,2.2-1.2,3c-1.3,5.3,0.5,9.9,3.4,14.2c1.8,2.6,3.9,2.3,5-0.6c0.4-1.1,0.1-2.7-0.3-4
		c-0.8-3.1-1.9-6.1-2.6-9.2c-0.3-1.2,0.1-2.6,0.2-3.9c-0.2,0-0.4-0.1-0.5-0.1c-0.7,1.2-1.3,2.4-2.2,3.9
		C300.4,61.4,300,60.7,299.2,59.3z"/>
	<path class="st1" d="M315.6,50c1.8-0.4,3-0.9,4.2-0.9c3.6,0,6.6-1.1,9.8-2.9c3.1-1.7,7-2.2,10.6-2.4c1.1-0.1,2.5,2.3,3.6,3.7
		c0.2,0.2-0.5,1.3-1,1.8c-0.3,0.3-0.9,0.2-1.4,0.3c-6.7,1.9-9,6.7-6.5,13.4c0.2,0.6,1.6,1.1,2.3,1c3.8-0.5,7.6-1.3,11.4-1.7
		c1.4-0.1,3,0.4,4.1,1.1c0.8,0.6,1.8,2.4,1.5,3.1c-2,5.2-4.4,10.3-6.7,15.4c-1.1,2.4-2.9,2.7-5.1,1.6c-0.7-0.4-1.5-0.6-2.2-0.9
		c-2.2-0.9-2.5,0.3-2.3,2.2c0.3,3.2,0.5,6.4,1,9.6c1.2,9.1,2.6,18.2,3.9,27.3c0.2,1.5-0.2,3.1-0.3,4.7c-0.4,0.1-0.9,0.2-1.3,0.3
		c-0.6-1.2-1.6-2.4-1.9-3.7c-0.8-4.4-1.3-8.8-1.9-13.2c-1.2-8.8-2.6-17.6-3.6-26.4c-0.4-3.9-2.5-6-5.8-8.3c-0.7,2.6-1.1,4.9-1.9,7.1
		c-0.4,1.1-1.6,2.8-2,2.7c-1.3-0.4-2.7-1.2-3.4-2.4c-2.6-4.1-1.7-8.2,0.4-12.3c2.3-4.5,4.4-9.2,6.5-13.8c0.8-1.8,0.2-2.1-1.7-2
		C322.3,54.8,319,53.2,315.6,50z M336,72.6c1,5.1,1,5,4.5,5.3c2,0.2,2.9-0.6,3.4-2.4c0.6-2.1,1.2-4.2,1.9-6.3c0.7-2-0.5-3.2-2-3.1
		c-2.4,0.2-5,0.7-7.1,1.9C335.9,68.5,336.2,71,336,72.6z M330.2,59.3c-0.4-0.1-0.7-0.1-1.1-0.2c-0.6,2.4-1.4,4.8-1.8,7.3
		c-0.1,0.5,1.3,1.9,1.7,1.8c0.8-0.2,2-1.2,2-1.9C330.9,64,330.5,61.7,330.2,59.3z"/>
	<path class="st1" d="M308.3,45.6c-0.3-0.9-0.9-2.7-1.4-4.4c-0.2-0.9-0.5-2.4-0.2-2.6c0.9-0.6,2.6-1.2,3.1-0.7
		c1.3,1.1,2.9,2.8,3,4.3c0.8,12.9,1.5,25.9,1.8,38.8c0.2,7-0.5,14.1-0.9,21.1c-0.1,1.5-0.4,3-1,4.4c-0.8,2.1-2.8,2.9-4.5,2.1
		c-1-0.4-1.9-2.6-1.7-3.8c0.7-5.4,2.3-10.7,2.5-16.1c0.4-10.3,0.1-20.7-0.1-31C308.9,54,308.5,50.3,308.3,45.6z"/>
	<path class="st1" d="M299.2,59.3c0.8,1.4,1.2,2.1,1.9,3.2c0.8-1.5,1.5-2.7,2.2-3.9c0.2,0,0.4,0.1,0.5,0.1c-0.1,1.3-0.4,2.7-0.2,3.9
		c0.7,3.1,1.8,6.1,2.6,9.2c0.3,1.3,0.7,2.8,0.3,4c-1.1,2.9-3.3,3.2-5,0.6c-2.9-4.2-4.7-8.8-3.4-14.2
		C298.1,61.4,298.6,60.7,299.2,59.3z"/>
	<path class="st2" d="M336,72.6c0.2-1.6-0.1-4.2,0.7-4.6c2.1-1.2,4.7-1.7,7.1-1.9c1.5-0.1,2.7,1.1,2,3.1c-0.7,2.1-1.3,4.2-1.9,6.3
		c-0.5,1.8-1.5,2.6-3.4,2.4C337,77.6,337,77.7,336,72.6z"/>
	<path class="st2" d="M330.2,59.3c0.3,2.4,0.7,4.7,0.7,7.1c0,0.7-1.2,1.7-2,1.9c-0.5,0.1-1.8-1.3-1.7-1.8c0.4-2.5,1.2-4.9,1.8-7.3
		C329.4,59.2,329.8,59.3,330.2,59.3z"/>
</g>
<g>
	<path class="st1" d="M474.8,58.2c-0.1,0.4-0.3,0.8-0.4,1.3c1.5,0.8,3,2.2,4.6,2.3c2.7,0.3,5.4-0.4,8.1-0.2c1.6,0.1,3.5,0.6,4.6,1.7
		c4.6,4.3,4.6,4.4,7.6-1.2c0.1-0.2,0.4-0.2,0.7-0.4c1.1,0.5,2.3,1.1,4,1.8c-3.7,3.3-7.1,6.3-10.4,9.3c-1.3,1.2-2.4,1.4-3.8,0.1
		c-2.7-2.3-5.9-3-9.4-2.7c-2.8,0.3-3.2,1.6-1.9,3.6c1.6,2.4,3.2,4.9,5.2,7c3.3,3.5,6.8,2.5,8.8-1.9c0.5-1.1,2.1-1.7,3.3-2.3
		c0.3-0.2,1.6,0.5,1.5,0.6c-0.3,1.2-0.4,2.6-1.2,3.5c-5.2,6.3-10.6,12.5-15.9,18.7c-0.7,0.8-1.5,2.1-2.3,2.1c-2.6,0-3.2,2-4,3.5
		c-1.3,2.8-2.3,5.7-3.2,8.7c-0.3,1,0.2,2.3,0.3,3.4c0.4,0.1,0.7,0.2,1.1,0.3c9.1-8.8,14-20.9,23-30.4c-1.6,6.5-2.8,12.6-4.7,18.5
		c-1.8,5.8-0.2,11.1,5.6,13.3c6.2,2.3,12.7,4.2,19.3,5.5c5.4,1.1,8-1.1,9.2-6.5c0.6-2.7,1.2-5.4,1.5-8.2c0.3-3.3,0.4-6.6,0.5-9.9
		c-0.4,0-0.8-0.1-1.1-0.1c-0.2,1-0.4,1.9-0.7,2.9c-1.4,4-2.7,8.1-4.4,12c-1.5,3.4-4.6,5-8.3,4.3c-4.7-1-9.4-2.5-14-3.9
		c-2.8-0.9-4-3.5-3.7-5.9c0.4-3.8,1.7-7.4,2.7-11.3c4.8,2.5,5.1,2.8,8.4-0.9c4.5-5,8.3-10.6,12.4-15.9c1.3-1.6,1-3.1-0.2-4.6
		c-1.2-1.5-2.4-2.5-4.6-2.2c-3.2,0.5-6.5,0.6-9.7,0.7c-1,0-2-0.5-3.5-0.8c1.6-1.3,3-2.1,3.9-3.2c5.3-6,11.5-7.4,19.1-4.2
		c1.7,0.7,4.1-0.3,6.9-0.6c-3.7-5-8.9-4.1-13.1-5.9c0.7-1,1.2-1.7,1.6-2.4c1.4-2.4,3-4.7,4.2-7.2c0.8-1.7,1-3.7-1.5-4.5
		c-2-0.7-3.6-0.9-5,1.8c-1.9,3.6-4.8,6.8-7.4,10.1c-0.4,0.5-1.5,0.8-2.2,0.8c-2.2-0.2-4.4-0.6-6.8-1c0.3-6.3-3.2-10.6-8.3-14.8
		c-0.3,1.8-0.5,2.9-0.5,4c0,2.1-0.1,4.3,0.1,6.4c0.4,3.1-0.8,4.2-4,4.2C482.7,57.5,478.8,58,474.8,58.2z"/>
	<path class="st1" d="M475.9,83.5c-1.3-0.2-2.6-0.6-3.8-0.6c-1.1,0-2.2,0.4-3.2,0.7c0.3,1.2,0.2,2.9,1,3.5c2.9,2.2,6,4,9.1,5.8
		c0.5,0.3,2.2-0.7,2.5-1.5C483.2,87.6,481.3,85.2,475.9,83.5z"/>
	<path class="st1" d="M474.8,58.2c3.9-0.2,7.9-0.7,11.8-0.7c3.2,0,4.3-1.1,4-4.2c-0.2-2.1-0.2-4.3-0.1-6.4c0-1.1,0.3-2.2,0.5-4
		c5.1,4.3,8.6,8.5,8.3,14.8c2.4,0.4,4.6,0.8,6.8,1c0.7,0.1,1.8-0.2,2.2-0.8c2.6-3.3,5.4-6.5,7.4-10.1c1.4-2.6,2.9-2.4,5-1.8
		c2.5,0.8,2.2,2.9,1.5,4.5c-1.2,2.5-2.8,4.8-4.2,7.2c-0.4,0.7-0.9,1.4-1.6,2.4c4.2,1.8,9.4,0.9,13.1,5.9c-2.8,0.3-5.2,1.3-6.9,0.6
		c-7.6-3.1-13.7-1.7-19.1,4.2c-1,1.1-2.3,1.9-3.9,3.2c1.4,0.4,2.5,0.9,3.5,0.8c3.2-0.1,6.5-0.2,9.7-0.7c2.3-0.4,3.4,0.7,4.6,2.2
		c1.3,1.6,1.5,3,0.2,4.6c-4.1,5.3-8,10.9-12.4,15.9c-3.3,3.7-3.7,3.3-8.4,0.9c-1,3.8-2.2,7.5-2.7,11.3c-0.3,2.4,0.9,5,3.7,5.9
		c4.6,1.4,9.3,2.9,14,3.9c3.7,0.8,6.8-0.9,8.3-4.3c1.8-3.9,3-8,4.4-12c0.3-0.9,0.5-1.9,0.7-2.9c0.4,0,0.8,0.1,1.1,0.1
		c-0.2,3.3-0.2,6.6-0.5,9.9c-0.3,2.8-0.9,5.5-1.5,8.2c-1.2,5.4-3.8,7.6-9.2,6.5c-6.5-1.4-13-3.2-19.3-5.5c-5.8-2.2-7.4-7.5-5.6-13.3
		c1.9-5.9,3.1-12,4.7-18.5c-9,9.5-13.9,21.6-23,30.4c-0.4-0.1-0.7-0.2-1.1-0.3c-0.1-1.2-0.6-2.4-0.3-3.4c0.9-3,1.9-5.9,3.2-8.7
		c0.7-1.5,1.4-3.5,4-3.5c0.8,0,1.6-1.3,2.3-2.1c5.3-6.2,10.7-12.4,15.9-18.7c0.7-0.9,0.9-2.3,1.2-3.5c0-0.1-1.2-0.8-1.5-0.6
		c-1.2,0.6-2.8,1.2-3.3,2.3c-1.9,4.4-5.4,5.4-8.8,1.9c-2-2.1-3.7-4.5-5.2-7c-1.3-2-0.8-3.4,1.9-3.6c3.5-0.3,6.8,0.4,9.4,2.7
		c1.5,1.3,2.5,1.2,3.8-0.1c3.3-3,6.7-6,10.4-9.3c-1.7-0.8-2.9-1.3-4-1.8c-0.4,0.2-0.7,0.2-0.7,0.4c-3,5.5-3,5.5-7.6,1.2
		c-1.1-1-3-1.6-4.6-1.7c-2.7-0.2-5.4,0.5-8.1,0.2c-1.6-0.2-3.1-1.5-4.6-2.3C474.6,59.1,474.7,58.6,474.8,58.2z M508.4,81.2
		c-1.5,0.1-2.8,0.1-4,0.3c-0.9,0.2-2.2,0.4-2.4,1c-1,2.3-1.7,4.8-2.3,7.3c-0.1,0.4,1.1,1.5,1.6,1.5
		C503.8,90.7,508.3,84.4,508.4,81.2z"/>
	<path class="st1" d="M475.9,83.5c5.4,1.7,7.2,4.1,5.6,7.8c-0.3,0.8-2.1,1.7-2.5,1.5c-3.2-1.7-6.3-3.6-9.1-5.8
		c-0.8-0.6-0.7-2.3-1-3.5c1.1-0.2,2.1-0.7,3.2-0.7C473.4,82.9,474.6,83.3,475.9,83.5z"/>
	<path class="st2" d="M508.4,81.2c-0.1,3.3-4.6,9.5-7.2,10c-0.4,0.1-1.6-1.1-1.6-1.5c0.6-2.5,1.3-4.9,2.3-7.3c0.2-0.6,1.6-0.8,2.4-1
		C505.6,81.3,506.9,81.3,508.4,81.2z"/>
</g>
<g>
	<path class="st1" d="M666.7,166c2.2-1.9,1.7-4.4,0-6.3c-2.6-3.2-5.4-6.2-8.3-9.1c-3-3-6.3-5.8-9.5-8.7c2.1-0.8,3.9-0.8,5.6-0.7
		c4.4,0.2,8.8,0.8,13.3,0.7c5.7-0.1,8.2-3.7,6.5-9c-1.1-3.7-2.7-4-5.9-1.6c-2.9,2.1-6.1,3.8-9.2,5.6c-0.5-0.2-0.9-0.5-1.4-0.7
		c3.6-5.2,1.9-9.5-0.9-13.6c-0.5-0.7-1.3-1.8-1.9-1.8c-0.7,0-1.6,1.1-2,1.9c-2.3,4.9-3.6,9.9-0.6,15.4c-4.1,0-8.6,0.5-11.7-1.3
		c-5.2-3-12.6-3.6-14.4-11.2c-4,1.2-8,2.1-11.8,3.6c-4,1.6-5.2,4.1-4.1,6.8c1.1,2.8,4.1,3.9,7.8,2.7c0.8-0.2,1.6-0.9,2.4-1
		c2.2-0.2,4.5-0.6,6.7-0.3c2.2,0.4,4.3,1.6,6.4,2.4c-2.5,1.8-5.1,3.3-7.2,5.3c-1,1-2,3.6-1.5,4.3c1,1.3,3,1.9,4.7,2.5
		c0.5,0.2,1.3-0.3,2.5-0.7c-0.1,2.2-0.1,4.1-0.3,7c-8.7-5.6-16.2-11.6-25.5-14.9c-1.2,4.5,1.1,6,3.8,7.5c5.9,3.2,11.7,6.5,17.3,10
		c1,0.6,1.7,3.4,1.2,4.1c-3.6,4.8-7.2,9.7-11.4,14c-5.1,5.2-7.8,5.1-13,0.4c-3.5-3.2-6.5-7-10.5-11.3c0.1,2.3-0.3,4,0.2,5.3
		c1.2,2.9,2.5,5.9,4.3,8.5c7.3,10.9,8.9,11.5,19.9,3c4.9-3.8,8.7-9.3,12.4-14.4c3.3-4.6,4.7-4.9,8.2-0.6c1.2,1.4,2.1,3,3.4,4.3
		c0.6,0.6,1.8,0.7,2.8,1c0.3-1,1-2,0.9-2.9c-0.2-1.1-0.8-2.3-1.6-3.2c-2.1-2.4-4.5-4.5-6.5-6.9c-0.8-1-1-2.4-1.5-3.7
		c1.1-0.5,2.3-1.3,3.4-1.3c1.9,0.1,4.1,0.3,5.7,1.1c4.6,2.5,9.1,5.1,13.4,8C662,168.4,664.5,167.9,666.7,166"/>
	<path class="st1" d="M644.2,131.3c3.9-5.3,4.9-9.9,2.6-15.1c-1.3-3-2.9-2.9-5-1.5c-4.2,2.9-6.6,9.4-4.9,14.2
		c0.5,1.5,1.7,3.6,2.9,3.8C641.3,133,643.2,131.7,644.2,131.3z"/>
	<path class="st1" d="M666.7,166c-2.2,1.9-4.7,2.4-7.5,0.5c-4.3-2.9-8.8-5.6-13.4-8c-1.6-0.9-3.8-1.1-5.7-1.1
		c-1.1,0-2.3,0.8-3.4,1.3c0.5,1.2,0.7,2.7,1.5,3.7c2,2.4,4.4,4.5,6.5,6.9c0.8,0.9,1.4,2.1,1.6,3.2c0.1,0.9-0.6,2-0.9,2.9
		c-0.9-0.3-2.1-0.4-2.8-1c-1.3-1.3-2.3-2.8-3.4-4.3c-3.5-4.3-4.9-3.9-8.2,0.6c-3.8,5.1-7.5,10.6-12.4,14.4c-11,8.5-12.6,7.9-19.9-3
		c-1.7-2.6-3.1-5.5-4.3-8.5c-0.5-1.3-0.1-2.9-0.2-5.3c4,4.3,7,8.1,10.5,11.3c5.2,4.7,7.9,4.8,13-0.4c4.2-4.3,7.8-9.1,11.4-14
		c0.5-0.7-0.2-3.5-1.2-4.1c-5.6-3.6-11.5-6.9-17.3-10c-2.8-1.5-5-3-3.8-7.5c9.3,3.3,16.8,9.3,25.5,14.9c0.1-2.9,0.2-4.7,0.3-7
		c-1.2,0.4-2,0.9-2.5,0.7c-1.7-0.7-3.8-1.2-4.7-2.5c-0.5-0.7,0.4-3.3,1.5-4.3c2.1-2,4.7-3.5,7.2-5.3c-2.1-0.8-4.2-2.1-6.4-2.4
		c-2.1-0.4-4.4,0-6.7,0.3c-0.8,0.1-1.6,0.7-2.4,1c-3.8,1.1-6.7,0.1-7.8-2.7c-1.1-2.7,0.1-5.2,4.1-6.8c3.7-1.5,7.7-2.4,11.8-3.6
		c1.8,7.6,9.1,8.3,14.4,11.2c3.1,1.8,7.6,1.3,11.7,1.3c-3-5.6-1.7-10.5,0.6-15.4c0.4-0.8,1.3-1.8,2-1.9c0.6,0,1.4,1.1,1.9,1.8
		c2.8,4.1,4.5,8.4,0.9,13.6c0.5,0.2,0.9,0.4,1.4,0.7c3.1-1.9,6.3-3.5,9.2-5.6c3.2-2.3,4.8-2.1,5.9,1.6c1.6,5.3-0.8,8.8-6.5,9
		c-4.4,0.1-8.8-0.5-13.3-0.7c-1.8-0.1-3.5-0.1-5.6,0.7c3.2,2.9,6.4,5.7,9.5,8.7c2.9,2.9,5.7,6,8.3,9.1
		C668.4,161.6,668.9,164.1,666.7,166"/>
	<path class="st2" d="M634,149.9c2.4,3.7,3,3.6,6.9-1.2C638.8,149.1,636.6,149.5,634,149.9z"/>
	<path class="st1" d="M644.2,131.3c-0.9,0.3-2.8,1.7-4.5,1.4c-1.2-0.2-2.4-2.3-2.9-3.8c-1.7-4.8,0.7-11.3,4.9-14.2
		c2.2-1.5,3.7-1.5,5,1.5C649,121.5,648.1,126,644.2,131.3z"/>
	<path class="st1" d="M638.5,142.4c0.8-1.6,1.4-2.9,2.3-4.8c5,7.6,11.7,13.4,13.4,23.5c-3.3-1.4-5.8-2.5-8.9-3.8
		c0.9-1,1.4-1.5,1.8-2.1c1.7-2.2,1.4-5.2-0.5-6.5C644,146.6,641.4,144.5,638.5,142.4z"/>
	<path class="st2" d="M636.1,145.8c3.4,0.9,6.7,1.8,9.9,2.6c2.3,0.5,3.7,3.2,3,5.8c-0.2,0.7-0.5,1.4-0.9,2.7c3.3,0,6.1,0,9.6,0.1
		c-5.5-8.6-13.9-11.4-21.4-16.5C636.2,142.6,636.2,144,636.1,145.8z"/>
	<path class="st2" d="M634,149.9c2.6-0.4,4.8-0.8,6.9-1.2C637,153.5,636.4,153.6,634,149.9z"/>
</g>
<g>
	<path class="st1" d="M671,265.6c1.4,0.6,2.8,1.4,4.3,1.7c0.8,0.1,1.7-0.7,2.6-1.1c8.7-3.9,17.3-7.9,26-11.7c2.7-1.2,5.6-2,8.9-3.2
		c0.1,3.5,0.2,6.3,0.3,9.1c0.1,2.9,0.7,5.3,3.3,4.7c1.3,3.8,2.4,7.2,3.8,11.2c-11.3-4-22.4-8-33.6-11.9c-1.3,4.1-0.6,5.9,2.7,6.9
		c7,2.1,14.1,4.1,21.1,6.2c1.6,0.5,3.2,1.2,5.1,1.8c-4.5,2-8.6,3.7-12.4,5.7c-4.1,2.1-7.2,5.5-7,10.5c0.3,9.1,4.2,16.7,11.6,22
		c1.7,1.2,5.2,2,6.6,1.1c4.5-3.1,8.4-7,12.6-10.6c-0.3-0.4-0.6-0.8-0.9-1.1c-2.6,0.9-5.3,1.8-7.9,2.8c-5.5,2.2-9.3,1.5-11.9-3
		c-1.9-3.3-3.2-7-4.2-10.6c-1-3.8,1.2-7,4.7-8.2c4-1.4,8-2.8,12-4.5c2.9-1.2,5.6-1.6,8.6-0.5c4.5,1.7,5,1.3,7-2.9
		c4.4-0.3,7.6,1.3,9.7,5.4c0.8,1.5,2.3,2.6,3.5,3.8c3,3,5.9,2.3,6.6-1.8c0.4-2-0.1-4.4-0.7-6.4c-0.7-2.4-2-4.7-2.9-6.7
		c3-2.7,6.2-4.8,8.3-7.7c1.7-2.3-0.4-8.3-2.3-9.6c-3.1,2.2-6,4.5-9,6.3c-1.5,0.9-3.7,3.1-5.1,0.1c-0.5-1.1,0.9-3.2,1.4-4.8
		c0.1-0.2,0-0.5,0-0.9c-3.1-1.8-6.2-3.6-10.4-6c2.9-0.5,4.7-0.9,6.5-1.1c2.5-0.2,5.1,0.1,7.4-0.6c1.3-0.4,2.5-2.3,2.9-3.8
		c0.3-1.2,0-3.6-0.9-4.2c-5.7-3.8-11.7-7.2-17.6-10.7c-3,4.2-2.1,8.2,2.6,11.7c-4.9,3.9-9.4,7.4-14.5,11.4c-0.4-4.3-0.7-7.2,3-8.6
		c1.5-0.6,3.2-1.3,4.3-2.5c1.1-1.1,1.6-2.8,2.3-4.3c-1.4-0.2-2.8-0.7-4.2-0.5c-2.4,0.4-4.8,1.1-7.5,1.8c-0.7,0.7-1.6,2.2-2.9,2.8
		c-5.7,2.7-11.5,5.2-17.2,7.8c-8.2,3.7-16.4,7.3-24.5,11.2"/>
	<path class="st1" d="M673.1,262.2c8.1-3.9,16.3-7.5,24.5-11.2c5.7-2.6,11.5-5,17.2-7.8c1.3-0.6,2.2-2.2,2.9-2.8
		c2.8-0.7,5.1-1.4,7.5-1.8c1.3-0.2,2.8,0.3,4.2,0.5c-0.7,1.5-1.2,3.2-2.3,4.3c-1.1,1.1-2.7,1.9-4.3,2.5c-3.7,1.4-3.4,4.3-3,8.6
		c5.1-4,9.6-7.5,14.5-11.4c-4.6-3.5-5.6-7.6-2.6-11.7c6,3.6,11.9,7,17.6,10.7c0.9,0.6,1.2,2.9,0.9,4.2c-0.4,1.5-1.6,3.4-2.9,3.8
		c-2.3,0.7-5,0.3-7.4,0.6c-1.8,0.2-3.6,0.6-6.5,1.1c4.2,2.4,7.3,4.2,10.4,6c0,0.5,0,0.7,0,0.9c-0.5,1.6-1.9,3.7-1.4,4.8
		c1.4,3,3.6,0.8,5.1-0.1c3.1-1.8,5.9-4.1,9-6.3c1.9,1.3,4,7.2,2.3,9.6c-2.1,2.9-5.3,5-8.3,7.7c0.9,2,2.2,4.3,2.9,6.7
		c0.6,2,1.1,4.4,0.7,6.4c-0.8,4.1-3.6,4.8-6.6,1.8c-1.2-1.2-2.7-2.3-3.5-3.8c-2.2-4.1-5.4-5.8-9.7-5.4c-2,4.2-2.5,4.5-7,2.9
		c-3.1-1.1-5.8-0.7-8.6,0.5c-3.9,1.7-7.9,3.1-12,4.5c-3.5,1.2-5.7,4.5-4.7,8.2c1,3.7,2.4,7.3,4.2,10.6c2.6,4.5,6.4,5.2,11.9,3
		c2.6-1,5.3-1.9,7.9-2.8c0.3,0.4,0.6,0.8,0.9,1.1c-4.1,3.6-8.1,7.6-12.6,10.6c-1.4,0.9-4.9,0.1-6.6-1.1c-7.4-5.3-11.3-12.9-11.6-22
		c-0.2-5,2.9-8.4,7-10.5c3.9-2,7.9-3.6,12.4-5.7c-1.9-0.7-3.4-1.4-5.1-1.8c-7-2.1-14.1-4.1-21.1-6.2c-3.3-1-4.1-2.8-2.7-6.9
		c11.1,3.9,22.3,7.9,33.6,11.9c-1.4-4-2.5-7.3-3.8-11.2c-2.6,0.6-3.2-1.7-3.3-4.7c-0.1-2.8-0.2-5.6-0.3-9.1c-3.3,1.2-6.2,2-8.9,3.2
		c-8.7,3.8-17.3,7.8-26,11.7c-0.9,0.4-1.8,1.2-2.6,1.1c-1.5-0.3-2.9-1.1-4.3-1.7"/>
	<path class="st1" d="M720.3,263.4c3,2.6,5.8,4.9,8.4,7.2c0.9-2.7,1.6-4.7,2.3-6.8c0.5,0,1,0.1,1.5,0.1c1.2,2.7,2.5,5.5,3.7,8.2
		c2.1,4.6,5.9,6.7,11.8,6c-2.4-3.4-4.7-6.6-6.9-9.8c-2.1-3.3-4.8-5.2-8.7-5.6c-2.9-0.3-5.7-1.6-8.7-2.5
		C722.9,261,721.9,262,720.3,263.4z"/>
	<path class="st1" d="M731.7,279.6c1.6-6.6-3.2-8.7-9-9.3C725.5,273.3,728.3,276.2,731.7,279.6z"/>
	<path class="st2" d="M720.3,263.4c1.6-1.5,2.6-2.4,3.4-3.2c3,0.9,5.8,2.2,8.7,2.5c4,0.4,6.6,2.3,8.7,5.6c2.1,3.2,4.4,6.4,6.9,9.8
		c-5.9,0.7-9.7-1.4-11.8-6c-1.2-2.7-2.5-5.5-3.7-8.2c-0.5,0-1-0.1-1.5-0.1c-0.7,2-1.4,4.1-2.3,6.8
		C726.1,268.4,723.3,266,720.3,263.4z"/>
	<path class="st2" d="M731.7,279.6c-3.4-3.5-6.2-6.4-9-9.3C728.5,270.9,733.3,273.1,731.7,279.6z"/>
</g>
</svg>
